<svg id="Capa_1" data-name="Capa 1" xmlns="http://www.w3.org/2000/svg" viewBox="0 0 1499.66 1000"><defs><style>.cls-1{fill:#27c5cd;}.cls-2{fill:#ff6700;}</style></defs><path class="cls-1" d="M848.78,645.19a104.27,104.27,0,0,0-.79-11.51c-.34-3.2-.67-6.23-.7-9.37l.24-.62a16,16,0,0,0,1.25-5.77,9.35,9.35,0,0,0-2-6c0-.85.24-2.17.39-3.21a48.09,48.09,0,0,0,.66-7.2c0-2.15-.13-4.3-.26-6.45-.12-1.82-.24-3.64-.25-5.94-.72-11.66-.37-23.49,0-36,.38-13,.77-26.44,0-40.94-.71-10.18-.48-20.6-.24-31.63.26-11.61.52-23.61-.24-36.25,0-1.27,0-2.3,0-3.12l.5-.5V437.4c0-1.47-.13-3.08-.28-4.69-.1-1.12-.22-2.23-.22-2.91.1-2.34.23-4.69.37-7,.54-9.16,1.09-18.62-.62-28.09a20.9,20.9,0,0,0,0-8.16,14.45,14.45,0,0,1-.25-2.54,124.28,124.28,0,0,1,.73-16.18,126.37,126.37,0,0,0,.75-17.08l-.26-5.46-5.19-1.73c-7-2.33-14.69-3.67-24.89-4.33a121.14,121.14,0,0,0-27.22-1.54,30,30,0,0,0-5.4.63,20.94,20.94,0,0,1-2.54.37,80.56,80.56,0,0,0-11.44.56l-3.57.51a18.6,18.6,0,0,0-6.16,2.06c-.25.13-.49.27-.65.34h-7.11l-.82,7.06c-1.65,14.23-5.63,26.59-9.85,39.68-1.82,5.63-3.63,11.27-5.29,17.14-1.51,5.5-2.75,11.07-3.95,16.47-2.05,9.22-4,17.92-7.22,26.46L713.8,491.3v.56a9.79,9.79,0,0,0-.46,2.19,162.48,162.48,0,0,1-4.65,19.73c-2.17-8-4.5-15.91-6.79-23.69-1.92-6.55-3.85-13.08-5.73-19.86-4.91-15.7-9-31.76-13-47.3-2-7.94-4.08-15.88-6.3-24.08-.53-1.7-1-3.44-1.42-5.17a61.18,61.18,0,0,0-4.59-13.3,19,19,0,0,0-.41-3.35l.63-.63-1-1c-.47-1.63-1.06-3.15-1.62-4.58l-.46-1.49a18,18,0,0,0-2.13-6.65c-.33-4.36-1.86-8.71-3.14-12.37l-1.88-5.57-3.29-1.41a23.3,23.3,0,0,0-10.77-1.68c-.37,0-.74,0-1.13,0-2-.36-3.86-.77-5.74-1.17-6.14-1.33-12.49-2.7-19.23-2.29-1.92,0-3.85-.06-5.76-.11a105.59,105.59,0,0,0-12.32.14l-2.14.35c-7.53,1.34-14.64,2.6-20.94,2.6a6.23,6.23,0,0,1-.94-.11,12.32,12.32,0,0,0-9.79,2.2l-3,2.24-.19,3.74c-.51,10.12-.51,21.29-.51,31.15,0,5.64.41,11,.8,16.22.36,4.75.69,9.24.69,13.53l0,1.91c-.06,3.58-.14,7.47.8,11a11.77,11.77,0,0,0-.28,2.51c0,1.17,0,2.5.1,3.91a58.87,58.87,0,0,1-.05,8.09l0,.89c0,2.8-.14,5.46-.27,7.91s-.23,4.52-.22,6.85c.74,15.68.74,31,.74,45.81,0,14.59,0,29.67.71,44.75-1,8.45-.82,16.37-.63,24,.08,3.12.17,6.27.17,9.5,0,8.12.37,16.28.74,24.17.36,7.71.74,15.69.74,23.44,0,3.12-.12,6.24-.24,9.36-.13,3.33-.26,6.65-.24,10.48.51,8.15,1,16.8,1,24.79,0,3.76-.17,7.28-.33,10.68a146.75,146.75,0,0,0-.16,15.57l.44,7.52H577c5.23,0,12.52,1.21,19.56,2.39,2,.34,4,.67,6.09,1,8,1.13,15.25-.29,21.67-1.55,2.23-.44,4.37-.86,6.33-1.12a9.23,9.23,0,0,0,10.65-.83l2.74-2.06.4-3.4c3.31-28.44,1.8-60.09.34-90.7l-.31-6.49c-1.69-24.27-2.44-41.86-2.46-58.56l.93,2.73,3.15,9.2a42.32,42.32,0,0,0,2,7.39l1.18,3.5c1.7,5,3.63,10.7,4.84,16,3.05,12,6.91,23.1,10.63,33.86,4.26,12.29,8.66,25,12,39.38a9.46,9.46,0,0,0,.29,1.34,12.18,12.18,0,0,0,.35,4.24l1.35,5.38,5.51.61c12.66,1.41,23.82,1.26,38.57-.51.89-.11,1.77-.19,2.66-.28a34.79,34.79,0,0,0,10.9-2.29l3.64-1.56,1-3.84c2.3-9.21,5-17.95,7.44-25.66l.52-1.72c2.09-8.9,4-16.23,6.25-23.1l3.05-12.13c1.15-3.24,2.33-6.44,3.5-9.62,3.08-8.39,6.23-17,8.81-25.94,0,2.25.06,4.5.1,6.73.12,8.2.23,16.13.23,22.56,0,30.11,0,56.11.5,83.81v3.1c-.06,8.66-.1,16.85,3.73,25.07l1.85,4,4.35.57c2.2.29,4.35.59,6.49.89,7.77,1.1,15.78,2.23,24,2.23,1.24,0,2.5,0,3.75-.08,8.08,0,15-1.58,21.16-3,1.77-.41,3.49-.8,5.2-1.14l5.84-1.17.54-5.94c.93-10.26.75-21,.57-31.34C848.7,658.27,848.59,651.77,848.78,645.19Z"/><path class="cls-1" d="M1093,415.13c-1.26-5.07-2.82-9.64-4.19-13.68l-1-3c-2.34-6.42-4.48-11.53-7.26-15.52a40.77,40.77,0,0,0-3.92-5.24l-1.72-2.09c-1.31-1.5-2.45-3.08-3.62-4.68a65.53,65.53,0,0,0-7-8.43c-5.08-4.52-7.39-6.08-13.61-8.33a201.92,201.92,0,0,0-28-9.2,34.78,34.78,0,0,0-10.55-1.56c-1.26-.05-2.52-.09-3.79-.23a14.27,14.27,0,0,0-3.37-.94,34.09,34.09,0,0,0-10.21-.95,49.69,49.69,0,0,1-5-.11l-.73,0c-2,0-4-.16-6-.32-4.33-.33-8.8-.66-13.18.19a95.06,95.06,0,0,0-18.11-.2c-2.89.16-5.81.33-8.52.33-3.95-.16-8.21-.53-12.52-.89-9.44-.81-19.21-1.65-27.11-.52l-2.64.37-1.47,1.48a12.78,12.78,0,0,0-4.38,2.89L892.63,347l.23,3.59c.31,5.06.2,10.86.09,16.46-.06,2.75-.11,5.4-.11,7.84a40.91,40.91,0,0,0,.81,7.4,31.94,31.94,0,0,1,.68,6l0,.73a67.4,67.4,0,0,1,.08,9c-.05,1.47-.1,2.9-.11,4.33a66.81,66.81,0,0,0,.33,13.37l.18,1.78c.22,4.3,0,8.8-.25,13.56a141.55,141.55,0,0,0-.26,14.79c0,1.47.13,3.08.28,4.69.1,1.12.22,2.23.22,3.25,0,1.45-.12,2.59-.22,3.73a51.91,51.91,0,0,0-.28,5.19v.53c.49,7.18.49,13.95.49,21.79,0,4.6-.35,9.24-.72,14.16-.38,5.17-.77,10.52-.77,16.09,0,3.9,0,7.63.11,11.3.11,7.08.21,13.77-.11,21.43,0,4-.17,8-.33,12.08-.34,8.44-.69,17.17.39,26.15,1,7.49.8,14.69.6,22.31-.08,3.24-.17,6.52-.16,10.17.48,13.14.48,26.45,0,39.59-.56,15.48.13,28.07,2.11,38.48l1.17,6.15,6.25.33a93.54,93.54,0,0,1,11.27,1.39,110.29,110.29,0,0,0,12.76,1.57,51,51,0,0,0,6,.35c8,0,15.06-1.83,22-3.6,2.51-.65,5-1.3,7.67-1.87l6.05-1.32.22-6.19c.26-7.18.13-14.12,0-20.83-.12-6.46-.24-13.14,0-19.77.34-7.79.23-13.86.12-20.29,0-3.14-.11-6.34-.11-9.82,0-17.89,0-37.92,1.39-57.62,2.41,0,4.94,0,7.25,0,10.06,0,20.46,0,30.53-1.39a118.74,118.74,0,0,0,41.34-13.24l16.24-12.3.85-.69c5.33-4.36,10.37-8.47,14.63-15.81a92,92,0,0,0,4.29-10.9c.49-1.4,1-2.84,1.6-4.52,3.24-9.72,4.43-20.08,5.69-31.05l.65-5.6c1.59-21.28,1.44-36.3-.53-53.57Zm-69.73,60c0,1.49-1,1.49-1.48,3,0,3,0,4.46-.5,4.95l-4.46,6.45c-14.38,7.44-34.72,7.94-54.06,4.47-4-29.76,1-55.05-.5-84.81,18.36-1.48,39.68-3.47,53.56,4,6,9.92,10.91,21.82,10.42,33.23-.5,5.45-.5,10.91-2,16.86C1024.31,467.15,1024.8,471.62,1023.31,475.09Z"/><path class="cls-1" d="M1326.72,668.91l-2.56-12.76c-2.3-9.19-4.13-18.81-5.91-28.11-1.26-6.62-2.53-13.23-4-20-1-3.94-2.27-7.65-3.5-11.23a90.73,90.73,0,0,1-3.3-10.89c-1.61-10.18-3.08-18.87-5-28-3-15.91-6.34-30.63-9.6-44.86-3.35-14.69-6.52-28.57-9.29-43.65-1.25-5.7-2.37-11.26-3.47-16.77-1.93-9.65-3.93-19.62-6.55-29.77l-3.85-13.95L1267.17,393l-2-8.6c-2.82-12.19-5.74-24.81-7.3-37.71l-1.18-9.7-5.66,1.89a9.26,9.26,0,0,0-3-.68c-28.71-2.81-52.53-3.77-75.46.62l-2.95.56-1.85,2.38c-3.7,4.77-4.89,10.14-6,14.89-.28,1.27-.56,2.54-.82,3.53a92.28,92.28,0,0,0-2.61,12.8,76.39,76.39,0,0,1-1.54,8.21l-1.56,7.37c-.66,4.19-1.23,8.38-1.78,12.48-.69,5.08-1.35,10-2.21,14.9-.37,2.58-.74,4.81-1.43,6l-.74,1.63c-1.42,4.29-2.67,8-2.85,13.88a58.07,58.07,0,0,0-3.4,13.18c-1.11,7.33-2.53,14.89-3.9,22.19-1.46,7.78-2.85,15.18-3.74,21.62a10.23,10.23,0,0,0-2,3.48l-1,2.87.85,2c-.21.47-.54,1.12-.8,1.64-.47.9-.93,1.83-1.34,2.78l-2,9.89-3.89,15.07-.15.68c-1.15,6.93-2,14.28-2.73,21.39-.53,4.89-1,9.55-1.62,13.6l-.28.72a34.79,34.79,0,0,0-2.89,12.59l-4.81,17.84c-1.26,6.05-2.28,12-3.28,17.89-1,5.73-2,11.47-3.17,17.32l-.13.84a90,90,0,0,1-2.73,14.56l-1,6.42c-1.7,11.58-3.46,23.56-5.57,33.28l-.2.91c-.58,2.49-2.11,9.12,3.73,13.5l1.64,1.22,2,.29a169.71,169.71,0,0,0,23.53,1.41c13,0,26.37-1,36.79-1.85l5.16-.45,1.7-4.88c4.91-14.07,7.93-28.9,10.84-43.25,1.21-5.91,2.45-12,3.8-17.91,8.1-.14,15.46-.55,22.62-1,10.47-.58,20.44-1.13,31.57-.79,1.41,8.47,3.31,15.93,5.29,23.74,1.1,4.31,2.22,8.74,3.34,13.67.58,2.34,1.21,4.48,1.82,6.56a58.72,58.72,0,0,1,2.91,14.74l.29,5.42,4.13,1.39,2.49,2.51,3,.21c20.12,1.37,35.68.25,53.69-1l10.57-.75,2.14-3.56c3.18-5.28,1-9.78,0-11.82ZM1190,567.83c7.94-33.73,15.87-66.46,21.82-100.18,0,11.41,6.94,25.79,9.42,37.19,5.45,21.82,8.93,42.65,12.9,62C1220.71,567.33,1205.33,569.31,1190,567.83Z"/><path class="cls-1" d="M1442.89,632.53l-2-20.58c-.89-14.11-.29-28.42.3-42.27.36-8.72.71-17,.71-25.16,0-1.06,0-2.46-.09-4.07a109.06,109.06,0,0,1,.06-11.58l0-.72a10.42,10.42,0,0,1,.48-2.46l.28-1.07.23-1.92c0-2.25-.11-4.61-.24-7.09s-.25-5.06-.25-7.79v-6.45c0-.65,0-1.35.09-2.06a31,31,0,0,0-.14-6.81,9.16,9.16,0,0,0-2-5,50.29,50.29,0,0,1,.18-8.64c.18-2.46.35-4.92.35-7.25,0-19.19,0-37.31-.49-54.55,0-6,.06-11.91.12-17.74.19-17.6.37-34.23-1.15-50.93l-.38-4.2-3.69-2.05c-5.67-3.15-12.21-3.08-18.55-3l-2.69,0c-17.14,0-29.84.63-41.16,2l-5,.62-.75,2.29h-3.86l.15,8.13c.32,17.13.22,35.27.11,54.47-.06,10.19-.11,20.72-.11,31.67v.17c.32,15.59.22,33.92.11,53.31-.06,10-.11,20.19-.11,30.46.17,10.26.45,20.63.74,30.89.55,19.74,1.07,38.38.74,55.13l-.22,11.19c-.49,24.53-1,49.9.74,77.72l.18,3,2.13,2.13c4.87,4.88,11.19,5,15.81,5.13,1.15,0,2.32.05,3.18.12a112.42,112.42,0,0,0,14.72,1,121.79,121.79,0,0,0,18.23-1.42c1.3-.11,2.58-.14,3.83-.16,4.82-.11,10.83-.24,16.27-4.47l2.9-2.25.17-3.67C1443.93,675.46,1443.93,654.61,1442.89,632.53Z"/><path class="cls-1" d="M402.94,232.4a2.07,2.07,0,0,0-.95,2.76l24,49.28a2.07,2.07,0,0,0,2.77.95,2.06,2.06,0,0,0,.95-2.76l-24-49.28A2.07,2.07,0,0,0,402.94,232.4Z"/><path class="cls-1" d="M439.85,191a2.06,2.06,0,0,0,1.32,2.61l52,17.17a2.06,2.06,0,1,0,1.29-3.92l-52-17.18A2.07,2.07,0,0,0,439.85,191Z"/><path class="cls-1" d="M242.13,127.86l52,17.17a2.05,2.05,0,0,0,.64.11,2.07,2.07,0,0,0,.65-4l-52-17.17a2.06,2.06,0,1,0-1.29,3.92Z"/><path class="cls-1" d="M437.68,133.83a2,2,0,0,0,.93-.22l49.53-24.94a2.07,2.07,0,1,0-1.86-3.7l-49.52,24.95a2.06,2.06,0,0,0,.92,3.91Z"/><path class="cls-1" d="M333.35,98.87a2.07,2.07,0,0,0,1.84,1.12,2.16,2.16,0,0,0,.95-.22A2.08,2.08,0,0,0,337,97L311.5,47.26a2.07,2.07,0,0,0-3.68,1.89Z"/><path class="cls-1" d="M392.16,95a2.08,2.08,0,0,0,2.61-1.32l16.18-49A2.07,2.07,0,0,0,407,43.4l-16.18,49A2.07,2.07,0,0,0,392.16,95Z"/><path class="cls-1" d="M524.35,483.48l0-6.45c0-.65,0-1.35.11-2.06a27.54,27.54,0,0,0-.13-6.8,8.83,8.83,0,0,0-1.07-3.4l-.6-65.93c.25-16.58.41-32.36-1.14-48.19l-.41-4.2-4.09-2.06c-6.28-3.18-13.55-3.13-20.6-3.08h-3c-19-.06-33.15.52-45.72,1.89l-5.55.61-.85,2.28h-4.29l.14,8.13c.3,17.13.13,35.27-.05,54.47-.1,10.19-.2-5.88-.24,5.07v.16a121.09,121.09,0,0,0,1,12.35l.64,98.53c-2,98.55-39.79,98.55-67.37,98.55-40.37,0-62.2-49.11-62.3-49.32L307,570.1c-24.92-45.91-50.85-104.13-83.73-188l74.87-77.82,34.59,40.79A5.23,5.23,0,0,0,342,343L384.2,156.12a5.23,5.23,0,0,0-7.94-5.49l-179.21,75.9a5.22,5.22,0,0,0,1.51,9.46l50,24.58L159.61,346c-5.25-4-10.85-8.42-17-13.53-.73-20.43,1.46-53.28.73-79.55l-1.46-76.64c-8-2.92-16.06-2.92-24.08-3.65-2.19,0,.21-1.46-2-1.46C109.27,169,98.32,169,90.29,169.7c-10.94,2.19-24.08,2.19-33.57,8.75,0,27,0,51.1.72,79.56,0,6.57-.72,15.33-.72,24.08.72,26.28-.73,52.56,0,78.83a109.3,109.3,0,0,0,.72,15.33c0,10.94-.72,21.89-1.45,32.84,0,5.11,1.45,8,1.45,11.68,0,12.41.74,25.55,0,38,0,32.85-.72,63.5,0,97.8,2.2,43.8-2.91,106-.72,150.56,2.92,2.19,5.11-1.46,8-2.19,5.11-.73,10.21,2.19,16,2.19,2.19,0,1.46-.73,3.66-.73s2.91.73,5.1.73c8.76.73,12.93,0,21.69-.73,8.75,0,17.51,1.46,27,1.46.73-2.19,2.92-.73,5.11-2.92,5.84-55.47-2.92-123.55-.73-176.1,0-10.95,0-20.44.73-31.38l.73-.74c.73-2.91,4.37-6.57,6.57-9.48L157.23,477l7.8-11.41C189.47,525,210.58,570.67,231.24,609c16.62,38,63.68,99.52,139.94,99.52,68,0,149.57-31.67,152.49-182.56v-.55l-.13-20.7c.06,0,.14-.07.15-.13l0-.72a9.29,9.29,0,0,1,.54-2.46l.31-1.07.26-1.92c0-2.25-.11-4.61-.24-7.1S524.35,486.2,524.35,483.48Z"/><path class="cls-2" d="M651.57,263H589.35c-2.69,0-4.81,0-6.39-.16a24.38,24.38,0,0,1-6-1.46,16.16,16.16,0,0,1-10.08-10.09,23.93,23.93,0,0,1-1.46-6q-.17-2.35-.17-6.39V127.43q0-4,.17-6.39a23.87,23.87,0,0,1,1.46-6A16.1,16.1,0,0,1,577,105a23.93,23.93,0,0,1,6-1.46c1.58-.11,3.7-.17,6.39-.17h62.22a78.18,78.18,0,0,1,9.3.39,19.15,19.15,0,0,1,5.72,1.74,13.8,13.8,0,0,1,6.16,6,19.74,19.74,0,0,1,0,18.72,13.8,13.8,0,0,1-6.16,6,19.12,19.12,0,0,1-5.72,1.73,75.56,75.56,0,0,1-9.3.4H604.71V165h36.77a78.18,78.18,0,0,1,9.3.39,18.86,18.86,0,0,1,5.72,1.74,13.79,13.79,0,0,1,6.17,6,19.84,19.84,0,0,1,0,18.73,13.79,13.79,0,0,1-6.17,6,18.86,18.86,0,0,1-5.72,1.74,78.18,78.18,0,0,1-9.3.39H604.71v28h46.86a78.18,78.18,0,0,1,9.3.39,18.86,18.86,0,0,1,5.72,1.74,13.69,13.69,0,0,1,6.16,6,19.74,19.74,0,0,1,0,18.72,13.72,13.72,0,0,1-6.16,6,18.86,18.86,0,0,1-5.72,1.74A78.18,78.18,0,0,1,651.57,263Z"/><path class="cls-2" d="M759.07,201.31l-19.28-2.69q-21.3-3-32.06-14.13-11-11.31-11-32.06,0-22.31,15.75-36.37T755,102a93.3,93.3,0,0,1,34.3,6.05,30.67,30.67,0,0,1,12,8,16.64,16.64,0,0,1,4.37,11.26A18.47,18.47,0,0,1,801,139.43a14,14,0,0,1-11.44,5.38q-4.81,0-13.89-3.81a55.05,55.05,0,0,0-21.75-4.49q-9.42,0-14.35,4.21T734.63,150a11.55,11.55,0,0,0,3.14,8.52q3.71,3.69,11,4.7L768,165.88q21.19,3,31.39,13.23,11.88,11.55,11.88,35,0,15.69-8.46,27.29a50.76,50.76,0,0,1-22.25,17.27,80.87,80.87,0,0,1-30.94,5.66q-23,0-36.55-5.38-10.53-4.15-15.69-9.36t-5.16-13.51a17.46,17.46,0,0,1,5.38-12.78A14.59,14.59,0,0,1,708.4,219a18,18,0,0,1,5.67.95q2.85,1,9.58,3.76a66.18,66.18,0,0,0,26.23,5.83q11.43,0,17.15-3.76A12.15,12.15,0,0,0,772.75,215q0-5.94-3.14-9.41Q766.25,202.21,759.07,201.31Z"/><path class="cls-2" d="M838.89,237.4v-110q0-4,.16-6.39a24.32,24.32,0,0,1,1.46-6A16.09,16.09,0,0,1,850.6,105a23.93,23.93,0,0,1,6-1.46q2.35-.16,6.39-.17h39.35a61.17,61.17,0,0,1,23.42,4.32A47.46,47.46,0,0,1,943,119.19a52.28,52.28,0,0,1,0,71,47.48,47.48,0,0,1-17.21,11.55A61.17,61.17,0,0,1,902.34,206h-24V237.4a94.29,94.29,0,0,1-.39,10.37,20.12,20.12,0,0,1-2.07,6.45,16.58,16.58,0,0,1-6.78,7,21.76,21.76,0,0,1-21,0,16.55,16.55,0,0,1-6.79-7,20.12,20.12,0,0,1-2.07-6.45A94.29,94.29,0,0,1,838.89,237.4ZM878.34,171h22.2q7.74,0,12.39-4.88a16.52,16.52,0,0,0,0-23q-4.65-4.87-12.39-4.87h-22.2Z"/><path class="cls-2" d="M962.43,232.92,1005,119.81q3.59-9.42,8.18-13,5.49-4.38,13.9-4.38t13.9,4.38q4.6,3.59,8.19,13l42.59,113.11a93.12,93.12,0,0,1,3.09,9.47,18,18,0,0,1,0,7.74,15.22,15.22,0,0,1-4.43,7.9,19.24,19.24,0,0,1-14.13,5.83,15.74,15.74,0,0,1-11.1-4,19.17,19.17,0,0,1-4-5,72.08,72.08,0,0,1-3.75-9.08l-2.36-6.5h-56l-2.36,6.5a70.58,70.58,0,0,1-3.75,9.08,19.17,19.17,0,0,1-4,5,15.74,15.74,0,0,1-11.1,4A19.24,19.24,0,0,1,963.77,258a15.29,15.29,0,0,1-4.43-7.9,18,18,0,0,1,0-7.74A95.74,95.74,0,0,1,962.43,232.92Zm80.82-26.45-16.14-44.4L1011,206.47Z"/><path class="cls-2" d="M1110.57,198.79q-.16-5.44-.17-15.64t.17-15.64q.17-5.43,1-13.45a67.84,67.84,0,0,1,2.46-13.12,60.69,60.69,0,0,1,4.88-10.93,47.89,47.89,0,0,1,8-10.54q17.49-17.48,44-17.48,14.68,0,23.77,2.74a43.39,43.39,0,0,1,16.48,9.36q8.17,7.41,11.66,15.31a36,36,0,0,1,3.47,14.29q0,9.42-5.49,14.91a18.43,18.43,0,0,1-13.57,5.49,17.7,17.7,0,0,1-10.53-3q-4.93-3.36-10.43-13.11-3.36-5.94-7.12-8.47A16,16,0,0,0,1170,137a16.8,16.8,0,0,0-14.12,6.95,27.18,27.18,0,0,0-4.83,12.39q-1.23,7.68-1.23,26.85t1.23,26.85a27.14,27.14,0,0,0,4.83,12.38,16.77,16.77,0,0,0,14.12,7,16,16,0,0,0,9.13-2.52q3.76-2.52,7.12-8.46,5.49-9.75,10.43-13.12a17.7,17.7,0,0,1,10.53-3,18.43,18.43,0,0,1,13.57,5.49q5.49,5.49,5.49,14.91a36.09,36.09,0,0,1-3.47,14.29q-3.48,7.9-11.66,15.3a43.26,43.26,0,0,1-16.48,9.36q-9.08,2.74-23.77,2.75-26.57,0-44-17.49a47.66,47.66,0,0,1-8-10.54,60.08,60.08,0,0,1-4.88-10.93,67.72,67.72,0,0,1-2.46-13.11Q1110.74,204.23,1110.57,198.79Z"/><path class="cls-2" d="M1253.33,237.4V128.89a94.41,94.41,0,0,1,.39-10.37,20.15,20.15,0,0,1,2.07-6.44,16.55,16.55,0,0,1,6.79-7,21.69,21.69,0,0,1,21,0,16.58,16.58,0,0,1,6.78,7,20.44,20.44,0,0,1,2.08,6.44,97.8,97.8,0,0,1,.38,10.37V237.4a97.67,97.67,0,0,1-.38,10.37,20.41,20.41,0,0,1-2.08,6.45,16.58,16.58,0,0,1-6.78,7,21.76,21.76,0,0,1-21,0,16.55,16.55,0,0,1-6.79-7,20.12,20.12,0,0,1-2.07-6.45A94.29,94.29,0,0,1,1253.33,237.4Z"/><path class="cls-2" d="M1427.2,246.82A58.38,58.38,0,0,1,1407.63,260q-10.7,4.32-24.94,4.32T1357.75,260a58.24,58.24,0,0,1-19.56-13.17,47.66,47.66,0,0,1-8-10.54,60.08,60.08,0,0,1-4.88-10.93,67.72,67.72,0,0,1-2.46-13.11q-.84-8-1-13.45t-.17-15.64q0-10.2.17-15.64t1-13.45a67.84,67.84,0,0,1,2.46-13.12,60.69,60.69,0,0,1,4.88-10.93,47.89,47.89,0,0,1,8-10.54,58.54,58.54,0,0,1,19.56-13.17q10.71-4.3,24.94-4.31t24.94,4.31a58.68,58.68,0,0,1,19.57,13.17,47.89,47.89,0,0,1,8,10.54,60.6,60.6,0,0,1,4.87,10.93,67,67,0,0,1,2.47,13.12q.84,8,1,13.45t.17,15.64q0,10.2-.17,15.64t-1,13.45a66.88,66.88,0,0,1-2.47,13.11,60,60,0,0,1-4.87,10.93A47.66,47.66,0,0,1,1427.2,246.82Zm-28.82-24.66q3.15-4.14,4.49-11.55t1.34-27.46q0-20.07-1.34-27.64t-4.49-11.6a17.52,17.52,0,0,0-6.44-5,22.81,22.81,0,0,0-18.5,0,17.69,17.69,0,0,0-6.44,5q-3.15,4-4.49,11.6t-1.34,27.64q0,20.07,1.34,27.46t4.49,11.55q5.49,7.17,15.69,7.17T1398.38,222.16Z"/><path class="cls-2" d="M91.43,899.64V811.88H76.84a69.26,69.26,0,0,1-8.25-.35A16.87,16.87,0,0,1,63.53,810a12.24,12.24,0,0,1-5.46-5.31,17.56,17.56,0,0,1,0-16.58,12.24,12.24,0,0,1,5.46-5.31,16.59,16.59,0,0,1,5.06-1.54,69.26,69.26,0,0,1,8.25-.35H141a69.06,69.06,0,0,1,8.24.35,16.73,16.73,0,0,1,5.07,1.54,12.24,12.24,0,0,1,5.46,5.31,17.56,17.56,0,0,1,0,16.58,12.24,12.24,0,0,1-5.46,5.31,17,17,0,0,1-5.07,1.54,69.06,69.06,0,0,1-8.24.35H126.38v87.76a83.37,83.37,0,0,1-.35,9.19,17.71,17.71,0,0,1-1.84,5.71,14.7,14.7,0,0,1-6,6.15,19.23,19.23,0,0,1-18.57,0,14.79,14.79,0,0,1-6-6.15,17.92,17.92,0,0,1-1.83-5.71A83.37,83.37,0,0,1,91.43,899.64Z"/><path class="cls-2" d="M224.37,879.39V836.7a78.08,78.08,0,0,1,.35-8.84,16.63,16.63,0,0,1,1.64-5.26,13.63,13.63,0,0,1,5.61-5.76,18.39,18.39,0,0,1,17.37,0A13.63,13.63,0,0,1,255,822.6a16.37,16.37,0,0,1,1.64,5.26,75.73,75.73,0,0,1,.35,8.84V901a75.73,75.73,0,0,1-.35,8.84,16.37,16.37,0,0,1-1.64,5.26,13.52,13.52,0,0,1-5.61,5.76,17.12,17.12,0,0,1-8.68,2.19q-10.32,0-15.29-9.54a32.28,32.28,0,0,1-11.57,7.35,37.76,37.76,0,0,1-13.45,2.58q-14.9,0-24-9.13a32.65,32.65,0,0,1-8.54-13.6,58.94,58.94,0,0,1-2.18-17V836.7a75.73,75.73,0,0,1,.35-8.84,16.13,16.13,0,0,1,1.64-5.26,13.57,13.57,0,0,1,5.61-5.76,18.39,18.39,0,0,1,17.37,0,13.63,13.63,0,0,1,5.61,5.76,16.63,16.63,0,0,1,1.64,5.26,78.08,78.08,0,0,1,.35,8.84v42.69a18.15,18.15,0,0,0,1.38,7.45,10.61,10.61,0,0,0,3.58,4.56,15.2,15.2,0,0,0,4.17,2.09,13.65,13.65,0,0,0,7.94,0,15.2,15.2,0,0,0,4.17-2.09,10.61,10.61,0,0,0,3.58-4.56A18.15,18.15,0,0,0,224.37,879.39Z"/><path class="cls-2" d="M436.24,853v48a78.08,78.08,0,0,1-.35,8.84,16.6,16.6,0,0,1-1.63,5.26,13.63,13.63,0,0,1-5.61,5.76,17.18,17.18,0,0,1-8.69,2.19q-10.33,0-15.29-9.54a38.59,38.59,0,0,1-10.93,7.6q-5.06,2.13-13.1,2.13-16.08,0-25.61-9.53-9.34-9.33-9.34-25a30.78,30.78,0,0,1,2.19-11.66,29.92,29.92,0,0,1,6.5-9.83,29.36,29.36,0,0,1,11.57-7,50.42,50.42,0,0,1,16.68-2.53h21V855q0-7.15-3.67-10.23t-11.41-3.08a34.39,34.39,0,0,0-13.31,3c-4.11,1.72-7.41,2.58-9.93,2.58a11.07,11.07,0,0,1-9.13-4.37,14.94,14.94,0,0,1-3.58-9.73,11.59,11.59,0,0,1,3-8,20.55,20.55,0,0,1,6.95-5.11,64.65,64.65,0,0,1,26.61-5.76q23.13,0,35.1,9.68T436.24,853Zm-32.57,29.19v-2.78H388.19q-5.56,0-8.44,2.33a8.36,8.36,0,0,0,.1,12.71c2,1.62,4.9,2.43,8.74,2.43a23.07,23.07,0,0,0,6.7-.79,14,14,0,0,0,5-3Q403.68,890,403.67,882.17Z"/><path class="cls-2" d="M518.45,879.39V836.7a75.73,75.73,0,0,1,.35-8.84,16.35,16.35,0,0,1,1.63-5.26,13.69,13.69,0,0,1,5.61-5.76,18.41,18.41,0,0,1,17.38,0A13.69,13.69,0,0,1,549,822.6a16.63,16.63,0,0,1,1.64,5.26,78.08,78.08,0,0,1,.35,8.84V901a78.08,78.08,0,0,1-.35,8.84,16.63,16.63,0,0,1-1.64,5.26,13.57,13.57,0,0,1-5.61,5.76,17.18,17.18,0,0,1-8.69,2.19q-10.32,0-15.29-9.54a32.33,32.33,0,0,1-11.56,7.35,37.77,37.77,0,0,1-13.46,2.58q-14.9,0-24-9.13a32.55,32.55,0,0,1-8.54-13.6,58.92,58.92,0,0,1-2.19-17V836.7a78.08,78.08,0,0,1,.35-8.84,16.37,16.37,0,0,1,1.64-5.26,13.63,13.63,0,0,1,5.61-5.76,18.39,18.39,0,0,1,17.37,0,13.63,13.63,0,0,1,5.61,5.76,16.37,16.37,0,0,1,1.64,5.26,78.08,78.08,0,0,1,.35,8.84v42.69a18,18,0,0,0,1.39,7.45,10.52,10.52,0,0,0,3.57,4.56,15.34,15.34,0,0,0,4.17,2.09,13.69,13.69,0,0,0,7.95,0,15.34,15.34,0,0,0,4.17-2.09,10.67,10.67,0,0,0,3.57-4.56A18,18,0,0,0,518.45,879.39Z"/><path class="cls-2" d="M608.8,922.28h-.6a36.53,36.53,0,0,1-14.74-2.83A26.85,26.85,0,0,1,583.13,912a33.91,33.91,0,0,1-5.75-10.08,32.7,32.7,0,0,1-1.94-11.17V802.15a75.73,75.73,0,0,1,.35-8.84,16.35,16.35,0,0,1,1.63-5.26,13.69,13.69,0,0,1,5.61-5.76,18.41,18.41,0,0,1,17.38,0,13.69,13.69,0,0,1,5.61,5.76,16.63,16.63,0,0,1,1.64,5.26,78.08,78.08,0,0,1,.35,8.84v86.18q0,6.45,6,6.75a21.65,21.65,0,0,1,8,1.78q6.55,3.28,6.56,11.72,0,8.14-6.76,11.52Q617.54,922.27,608.8,922.28Z"/><path class="cls-2" d="M731.51,853v48a78.71,78.71,0,0,1-.34,8.84,16.63,16.63,0,0,1-1.64,5.26,13.57,13.57,0,0,1-5.61,5.76,17.18,17.18,0,0,1-8.69,2.19q-10.34,0-15.29-9.54a38.56,38.56,0,0,1-10.92,7.6q-5.07,2.13-13.1,2.13-16.09,0-25.62-9.53-9.34-9.33-9.33-25a30.77,30.77,0,0,1,2.18-11.66,30,30,0,0,1,6.51-9.83,29.32,29.32,0,0,1,11.56-7,50.42,50.42,0,0,1,16.68-2.53H699V855q0-7.15-3.68-10.23t-11.41-3.08a34.39,34.39,0,0,0-13.31,3q-6.15,2.58-9.93,2.58a11.09,11.09,0,0,1-9.13-4.37,15,15,0,0,1-3.58-9.73,11.59,11.59,0,0,1,3-8,20.58,20.58,0,0,1,7-5.11,64.6,64.6,0,0,1,26.6-5.76q23.13,0,35.1,9.68T731.51,853ZM699,882.17v-2.78H683.46q-5.57,0-8.44,2.33a8.36,8.36,0,0,0,.1,12.71c2,1.62,4.9,2.43,8.74,2.43a23,23,0,0,0,6.7-.79,13.93,13.93,0,0,0,5-3Q698.95,890,699,882.17Z"/><path class="cls-2" d="M864,882.17l-16.48-1.59q-31-3-31-31a32.63,32.63,0,0,1,3.63-15.44A31,31,0,0,1,829.79,823a46.24,46.24,0,0,1,13.56-6.51A54.38,54.38,0,0,1,859,814.26a76.25,76.25,0,0,1,26.41,4.37,27.84,27.84,0,0,1,10.13,6,12.83,12.83,0,0,1,3.58,9.33,15.62,15.62,0,0,1-4.37,10.32,12.55,12.55,0,0,1-8.74,3.58c-2.12,0-5.06-.8-8.84-2.39q-12.1-4.95-19-5a13.53,13.53,0,0,0-7.44,1.84,5.5,5.5,0,0,0-2.89,4.81q0,5.37,6.95,6.06l16.48,1.59q16.19,1.59,24.18,10.32t8,22.24A35.73,35.73,0,0,1,901,900.74a29.35,29.35,0,0,1-6.7,10.22,38.94,38.94,0,0,1-10.13,7,49.46,49.46,0,0,1-12.65,4.17,77,77,0,0,1-14.35,1.29,86.68,86.68,0,0,1-21.05-2.18,50.72,50.72,0,0,1-15.69-6.95q-7.15-4.86-7.15-11.92a14.82,14.82,0,0,1,1.44-6.35,12.2,12.2,0,0,1,3.73-4.77,13.66,13.66,0,0,1,8.54-3.07c2.44,0,5.69,1,9.72,3.07A45.71,45.71,0,0,0,858,896.47a22,22,0,0,0,9.78-1.94c2.62-1.29,3.92-3.16,3.92-5.61C871.69,884.89,869.11,882.63,864,882.17Z"/><path class="cls-2" d="M995.5,879.39h-46a15.92,15.92,0,0,0,5.15,11.91q5.17,5,14.1,5a29,29,0,0,0,16.09-4.77q6.25-4.17,11.32-4.17,4.66,0,8.79,4a12.88,12.88,0,0,1,4.12,9.49q0,7.63-10.13,14.69-11.52,8-30.58,7.94-50.83,0-50.84-54.6,0-25.73,13.21-40.16t34.65-14.45q14.4,0,25.27,6.45a43.05,43.05,0,0,1,16.43,16.88,54.38,54.38,0,0,1,6.16,23.33q.39,9.74-4.37,14.5a11.89,11.89,0,0,1-4.32,2.73,16.79,16.79,0,0,1-4.32,1.09C999.07,879.34,997.49,879.39,995.5,879.39Zm-46-21.64H981.3a18.43,18.43,0,0,0-1.78-8.34q-4-8.34-14.1-8.34-10.33,0-14.1,8.34A19.67,19.67,0,0,0,949.54,857.75Z"/><path class="cls-2" d="M1087.84,913.94v-7.35q-8.94,8.94-23,8.94-15.49,0-25-9.53a28.84,28.84,0,0,1-8.29-15.24q-1.63-8.6-1.64-25.87T1031.5,839a28.88,28.88,0,0,1,8.29-15.24q9.53-9.52,25.22-9.53a32.84,32.84,0,0,1,13.25,2.38,35.38,35.38,0,0,1,10.57,7.55q5-9.54,15.29-9.53a17.28,17.28,0,0,1,8.69,2.18,13.69,13.69,0,0,1,5.61,5.76,16.37,16.37,0,0,1,1.64,5.26,78.08,78.08,0,0,1,.35,8.84v77.84q0,19.07-13.26,31.27t-35,12.21q-16.87,0-28.39-6.35-10.34-5.65-10.33-14.5a13,13,0,0,1,4-9.58,12.24,12.24,0,0,1,8.74-3.92,25.87,25.87,0,0,1,11.12,3q8.23,4,13.3,4,8.94,0,13.11-4.76A17.45,17.45,0,0,0,1087.84,913.94Zm-18.62-29a14.7,14.7,0,0,0,11.82,0,10.22,10.22,0,0,0,3.72-3,13.94,13.94,0,0,0,2-4.86,31.8,31.8,0,0,0,.89-5.66q.15-2.58.15-6.46t-.15-6.45a31.8,31.8,0,0,0-.89-5.66,13.94,13.94,0,0,0-2-4.86,10.22,10.22,0,0,0-3.72-3,14.7,14.7,0,0,0-11.82,0,10.22,10.22,0,0,0-3.72,3,13.94,13.94,0,0,0-2,4.86,32.74,32.74,0,0,0-.89,5.66q-.15,2.58-.15,6.45t.15,6.46a32.74,32.74,0,0,0,.89,5.66,13.94,13.94,0,0,0,2,4.86A10.22,10.22,0,0,0,1069.22,884.9Z"/><path class="cls-2" d="M1203.6,879.39V836.7a78.08,78.08,0,0,1,.35-8.84,16.63,16.63,0,0,1,1.64-5.26,13.63,13.63,0,0,1,5.61-5.76,18.39,18.39,0,0,1,17.37,0,13.57,13.57,0,0,1,5.61,5.76,16.37,16.37,0,0,1,1.64,5.26,75.73,75.73,0,0,1,.35,8.84V901a75.73,75.73,0,0,1-.35,8.84,16.37,16.37,0,0,1-1.64,5.26,13.46,13.46,0,0,1-5.61,5.76,17.12,17.12,0,0,1-8.68,2.19q-10.32,0-15.29-9.54a32.28,32.28,0,0,1-11.57,7.35,37.68,37.68,0,0,1-13.45,2.58q-14.89,0-24-9.13a32.76,32.76,0,0,1-8.54-13.6,59.29,59.29,0,0,1-2.18-17V836.7a75.73,75.73,0,0,1,.35-8.84,16.13,16.13,0,0,1,1.64-5.26,13.63,13.63,0,0,1,5.61-5.76,18.39,18.39,0,0,1,17.37,0,13.63,13.63,0,0,1,5.61,5.76,16.63,16.63,0,0,1,1.64,5.26,78.08,78.08,0,0,1,.35,8.84v42.69a18.15,18.15,0,0,0,1.38,7.45,10.61,10.61,0,0,0,3.58,4.56,15.2,15.2,0,0,0,4.17,2.09,13.65,13.65,0,0,0,7.94,0,15.2,15.2,0,0,0,4.17-2.09,10.61,10.61,0,0,0,3.58-4.56A18.15,18.15,0,0,0,1203.6,879.39Z"/><path class="cls-2" d="M1261.59,901V836.7a75.73,75.73,0,0,1,.35-8.84,15.89,15.89,0,0,1,1.64-5.26,13.57,13.57,0,0,1,5.61-5.76,17.22,17.22,0,0,1,8.68-2.18q10.32,0,15.29,9.53a35.65,35.65,0,0,1,10.37-7,30.53,30.53,0,0,1,13-2.93q10.82,0,18,5,7.35,5.17,7.35,12.71a16.46,16.46,0,0,1-5,12.12,14.8,14.8,0,0,1-10.91,4.36,23.55,23.55,0,0,1-9.93-2.58,20.2,20.2,0,0,0-8.34-2.18,14,14,0,0,0-4.17.64,16.65,16.65,0,0,0-4.32,2.14,10.48,10.48,0,0,0-3.63,4.56,17.92,17.92,0,0,0-1.39,7.35V901a78.71,78.71,0,0,1-.34,8.84,16.63,16.63,0,0,1-1.64,5.26,13.57,13.57,0,0,1-5.61,5.76,18.32,18.32,0,0,1-17.37,0,13.46,13.46,0,0,1-5.61-5.76,15.89,15.89,0,0,1-1.64-5.26A75.73,75.73,0,0,1,1261.59,901Z"/><path class="cls-2" d="M1443.68,853v48a78.08,78.08,0,0,1-.35,8.84,16.37,16.37,0,0,1-1.64,5.26,13.52,13.52,0,0,1-5.61,5.76,17.16,17.16,0,0,1-8.69,2.19q-10.32,0-15.28-9.54a38.59,38.59,0,0,1-10.93,7.6q-5.06,2.13-13.1,2.13-16.08,0-25.61-9.53-9.35-9.33-9.34-25a31,31,0,0,1,2.18-11.66,30.11,30.11,0,0,1,6.51-9.83,29.39,29.39,0,0,1,11.56-7,50.46,50.46,0,0,1,16.68-2.53h21V855q0-7.15-3.67-10.23T1396,841.66a34.34,34.34,0,0,0-13.3,3q-6.17,2.58-9.93,2.58a11.11,11.11,0,0,1-9.14-4.37,15,15,0,0,1-3.57-9.73,11.55,11.55,0,0,1,3-8,20.45,20.45,0,0,1,7-5.11,64.61,64.61,0,0,1,26.61-5.76q23.13,0,35.09,9.68T1443.68,853Zm-32.57,29.19v-2.78h-15.48q-5.57,0-8.45,2.33a8.35,8.35,0,0,0,.11,12.71q3,2.43,8.73,2.43a23,23,0,0,0,6.7-.79,14,14,0,0,0,5-3Q1411.12,890,1411.11,882.17Z"/></svg>