<svg width="121" height="50" viewBox="0 0 121 61" fill="none" xmlns="http://www.w3.org/2000/svg">
<path d="M68.3629 51.4223C68.3595 51.1183 68.3393 50.8147 68.3024 50.5129C68.2752 50.2601 68.2491 50.0206 68.2467 49.7726C68.2528 49.7563 68.2594 49.7401 68.2655 49.7232C68.3266 49.5786 68.3603 49.4239 68.3647 49.267C68.367 49.0965 68.3099 48.9304 68.2031 48.797C68.2031 48.7296 68.2219 48.6248 68.2334 48.543C68.2654 48.355 68.283 48.1649 68.286 47.9742C68.286 47.8045 68.2758 47.6342 68.2655 47.4644C68.2564 47.3212 68.2467 47.1773 68.2455 46.995C68.1886 46.0735 68.2164 45.1394 68.2455 44.1506C68.2758 43.1232 68.306 42.0615 68.2455 40.9161C68.1892 40.1114 68.2074 39.2911 68.2267 38.4166C68.2473 37.4993 68.2679 36.5508 68.208 35.5523C68.208 35.4518 68.208 35.3717 68.208 35.3055L68.2479 35.2664V35.004C68.2479 34.8879 68.237 34.7633 68.2255 34.6333C68.2177 34.5448 68.2086 34.4569 68.208 34.4033C68.2158 34.2186 68.2267 34.0332 68.237 33.8484C68.28 33.1262 68.3242 32.3781 68.188 31.6294C68.2305 31.4166 68.2305 31.1975 68.188 30.9848C68.1753 30.9185 68.1684 30.8512 68.1674 30.7837C68.1597 30.3568 68.1799 29.9297 68.2279 29.5054C68.2679 29.0624 68.309 28.6026 68.2885 28.1554L68.2679 27.7244L67.8557 27.5878C67.2996 27.4037 66.6889 27.2977 65.8779 27.2454C65.1638 27.1242 64.4382 27.0838 63.7149 27.125C63.5709 27.1282 63.4275 27.1447 63.2865 27.1743C63.2198 27.1881 63.1522 27.1978 63.0843 27.2032C62.781 27.1965 62.4777 27.2114 62.1765 27.2478L61.8921 27.2881C61.7208 27.3136 61.5553 27.3686 61.4031 27.4506C61.3831 27.4608 61.3637 27.4723 61.3516 27.4777H60.787L60.7216 28.0356C60.5903 29.1599 60.2738 30.1367 59.9385 31.1713C59.7944 31.6155 59.6504 32.0615 59.5185 32.5249C59.3974 32.9595 59.3 33.4 59.2044 33.8262C59.0422 34.5544 58.8878 35.243 58.6306 35.917L57.6442 39.264V39.3055C57.6252 39.3615 57.613 39.4195 57.6078 39.4783C57.5174 40.0051 57.3939 40.5257 57.2381 41.0371C57.0656 40.4039 56.881 39.7798 56.6988 39.1653C56.5457 38.6477 56.3926 38.1319 56.2431 37.5962C55.8534 36.3552 55.5253 35.0865 55.2082 33.8587C55.0466 33.2315 54.8844 32.6044 54.7077 31.9562C54.666 31.822 54.6302 31.6847 54.5951 31.5481C54.5038 31.1984 54.41 30.8379 54.232 30.4966C54.229 30.4076 54.2181 30.319 54.1993 30.2318L54.249 30.1819L54.1661 30.0988C54.1291 29.9706 54.0819 29.8508 54.0371 29.7377L54.0008 29.6203C53.9795 29.4358 53.9219 29.2573 53.8314 29.0949C53.8048 28.7506 53.6843 28.4064 53.582 28.1175L53.4326 27.6775L53.1638 27.5692C52.8158 27.4205 52.5326 27.4295 52.3081 27.4368H52.2185C52.063 27.4079 51.9117 27.3766 51.7622 27.3435C51.278 27.2387 50.7697 27.1304 50.2347 27.1629C50.0815 27.1629 49.9284 27.1587 49.7765 27.1545C49.4504 27.1389 49.1236 27.1425 48.7979 27.1653L48.6278 27.193C48.0299 27.2983 47.4646 27.3982 46.9641 27.3982C46.9392 27.3972 46.9143 27.3944 46.8897 27.3898C46.755 27.363 46.6161 27.3646 46.4821 27.3944C46.348 27.4243 46.2218 27.4818 46.1114 27.5632L45.876 27.7413L45.8609 28.0368C45.8203 28.8361 45.8203 29.722 45.8203 30.4978C45.8203 30.9432 45.8524 31.3681 45.8839 31.7792C45.9123 32.1548 45.9389 32.5093 45.9389 32.8487V32.9992C45.9335 33.2821 45.928 33.5902 45.9995 33.8653C45.9848 33.9303 45.9773 33.9967 45.9771 34.0633C45.9771 34.156 45.9813 34.2607 45.9849 34.3733C45.9989 34.5861 45.9977 34.7997 45.9813 35.0124L45.9771 35.0823C45.9771 35.3037 45.9656 35.5138 45.9559 35.7076C45.9462 35.9014 45.9377 36.0645 45.9383 36.2493C45.9988 37.4885 45.9988 38.6989 45.9988 39.8689C45.9988 41.0215 45.9988 42.2132 46.0551 43.4055C45.9734 44.0729 45.9898 44.6989 46.0055 45.3049C46.0116 45.5511 46.0182 45.7997 46.0182 46.0549C46.0182 46.6971 46.0485 47.3417 46.0787 47.9652C46.1078 48.5749 46.1393 49.2044 46.1393 49.8171C46.1393 50.0633 46.1296 50.3101 46.1199 50.5568C46.1096 50.8192 46.0999 51.0822 46.1011 51.3844C46.1417 52.029 46.1786 52.7121 46.1786 53.3435C46.1786 53.6408 46.1653 53.9182 46.1532 54.1861C46.1265 54.5958 46.1223 55.0067 46.1405 55.4169L46.175 56.0103H46.7729C47.1893 56.0103 47.7679 56.1066 48.3277 56.1993C48.4862 56.2258 48.6454 56.2523 48.8118 56.2781C49.4443 56.3678 50.0222 56.2553 50.5336 56.1578C50.7104 56.1235 50.8804 56.0898 51.0359 56.0693C51.3059 56.2264 51.6115 56.2059 51.8832 56.0037L52.1011 55.8412L52.1326 55.5722C52.3958 53.3254 52.276 50.824 52.1598 48.4057L52.135 47.893C52.0006 45.9754 51.9419 44.5857 51.9395 43.2664C51.9643 43.338 51.9891 43.4097 52.0133 43.4813L52.2639 44.2083C52.2978 44.4072 52.3499 44.6026 52.4194 44.7921L52.5139 45.069C52.6488 45.4656 52.8013 45.9116 52.8982 46.3293C53.1402 47.2748 53.4465 48.1542 53.7454 49.0046C54.0838 49.976 54.4336 50.9805 54.7011 52.1162C54.7064 52.1518 54.7141 52.187 54.7241 52.2216C54.7136 52.3343 54.7232 52.448 54.7525 52.5574L54.8596 52.9817L55.2972 53.0305C56.303 53.1418 57.1903 53.1304 58.3619 52.9902C58.4321 52.9817 58.5029 52.9751 58.5731 52.9685C58.8382 52.9432 59.139 52.9149 59.4392 52.7879L59.7285 52.6645L59.8041 52.3636C59.9857 51.636 60.2042 50.9456 60.396 50.3365L60.4366 50.1999C60.603 49.4969 60.7513 48.9173 60.9334 48.3745L61.1755 47.4169C61.2669 47.1605 61.3607 46.9077 61.4533 46.6561C61.6954 45.9941 61.9484 45.3152 62.1535 44.6098C62.1535 44.7903 62.1584 44.9655 62.1608 45.1418C62.1705 45.7894 62.1795 46.416 62.1795 46.924C62.1795 49.3025 62.1796 51.3573 62.2195 53.5445V53.7894C62.2153 54.4738 62.2116 55.1202 62.516 55.7702L62.6631 56.0837L63.0087 56.1289C63.183 56.1512 63.3542 56.1752 63.5243 56.1993C64.1416 56.286 64.7777 56.3756 65.4331 56.3756C65.5318 56.3756 65.631 56.3757 65.7303 56.369C66.3724 56.369 66.9249 56.2438 67.4115 56.1337C67.5525 56.1018 67.6893 56.0735 67.8249 56.0434L68.2891 55.9513L68.332 55.4819C68.4059 54.6706 68.3926 53.8237 68.3768 53.0052C68.3562 52.4557 68.3478 51.9447 68.3629 51.4223Z" fill="#00B4C1"/>
<path d="M87.767 33.2399C87.6659 32.8397 87.543 32.478 87.4335 32.1596L87.3536 31.9231C87.1678 31.4163 86.9978 31.0118 86.7763 30.6965C86.6837 30.5505 86.5797 30.412 86.4652 30.2824C86.4289 30.2384 86.3895 30.1921 86.329 30.1175C86.2249 29.9971 86.1335 29.8737 86.0409 29.7479C85.8744 29.5109 85.6884 29.288 85.4848 29.0816C85.0811 28.7247 84.8971 28.6002 84.4033 28.4232C83.6807 28.1274 82.9373 27.8846 82.1791 27.6968C81.8838 27.5932 81.5957 27.5824 81.3403 27.5734C81.2405 27.5698 81.14 27.5661 81.0377 27.5553C80.9522 27.519 80.8623 27.494 80.7702 27.4807C80.4779 27.3988 80.2056 27.4024 79.9592 27.4055C79.8275 27.4094 79.6955 27.4066 79.564 27.397H79.5035C79.3468 27.397 79.1864 27.3838 79.0272 27.3723C78.6829 27.3459 78.3282 27.3194 77.9796 27.3868C77.467 27.32 76.9956 27.3459 76.5411 27.3711C76.3117 27.3838 76.0793 27.397 75.8644 27.397C75.5503 27.385 75.2114 27.3555 74.8701 27.3266C74.1196 27.2628 73.3432 27.196 72.7156 27.2857L72.5062 27.3152L72.3894 27.4313C72.2587 27.4828 72.1402 27.5607 72.0414 27.66L71.8398 27.8611L71.8574 28.1445C71.8822 28.5442 71.8737 29.0022 71.8647 29.4458C71.8604 29.6624 71.8562 29.8719 71.8562 30.0651C71.8599 30.2614 71.8814 30.457 71.9203 30.6495C71.9531 30.8052 71.9711 30.9636 71.9742 31.1226V31.1828C71.9921 31.4187 71.9943 31.6555 71.9809 31.8918C71.9766 32.0073 71.9724 32.1205 71.9718 32.233C71.9452 32.5855 71.9541 32.9398 71.9984 33.2905L72.0123 33.4307C72.0238 33.7879 72.0171 34.1455 71.9924 34.502C71.9654 34.891 71.9585 35.2812 71.9718 35.6709C71.9718 35.7864 71.9827 35.9116 71.9942 36.0416C72.002 36.1295 72.0111 36.218 72.0111 36.298C72.0111 36.4124 72.002 36.5026 71.9942 36.5929C71.9827 36.7181 71.9718 36.8433 71.9718 37.0028V37.0449C72.0099 37.6119 72.0099 38.1469 72.0099 38.7663C72.0099 39.1274 71.9827 39.4969 71.9536 39.8857C71.9234 40.2944 71.8931 40.7169 71.8931 41.1569C71.8931 41.4644 71.8973 41.7587 71.9022 42.0494C71.9107 42.6092 71.9191 43.1376 71.8931 43.7425C71.8931 44.0609 71.8804 44.3787 71.8671 44.697C71.8398 45.3639 71.8126 46.0536 71.8986 46.7632C71.9766 47.3555 71.9591 47.9242 71.9458 48.5261C71.9391 48.7825 71.9324 49.0413 71.933 49.3302C71.9712 50.3678 71.9712 51.4199 71.933 52.4599C71.8889 53.6829 71.9439 54.6772 72.1007 55.4999L72.1939 55.9862L72.6902 56.0121C72.9905 56.0308 73.2894 56.0674 73.5853 56.1216C73.9204 56.1831 74.2589 56.2245 74.599 56.2456C74.7564 56.2642 74.9149 56.2734 75.0734 56.2733C75.7053 56.2733 76.2699 56.1295 76.8207 55.9892C77.0192 55.9381 77.2207 55.8869 77.4295 55.8418L77.91 55.7377L77.9282 55.2483C77.9488 54.6808 77.9385 54.1319 77.9282 53.6022C77.9191 53.0919 77.9094 52.5646 77.9282 52.0374C77.9548 51.4223 77.9463 50.9426 77.9373 50.4346C77.933 50.1867 77.9282 49.9339 77.9282 49.6588C77.9282 48.245 77.9282 46.6627 78.0383 45.1057C78.2302 45.1057 78.4311 45.1057 78.6151 45.1057C79.414 45.1057 80.2407 45.1057 81.0401 44.9962C82.2064 44.8463 83.2189 44.5243 84.3252 43.9501L85.6227 42.9727L85.6899 42.9179C86.1136 42.5743 86.513 42.2493 86.8519 41.6691C86.9841 41.3895 87.0981 41.1018 87.1932 40.8078C87.2314 40.6976 87.2713 40.5839 87.3197 40.4503C87.5769 39.6829 87.6719 38.8644 87.7724 37.9977L87.8239 37.5553C87.9503 35.8701 87.9382 34.6862 87.7815 33.3224L87.767 33.2399ZM82.2263 37.9772C82.2263 38.0976 82.1483 38.0976 82.1053 38.2125C82.1053 38.4473 82.1053 38.5652 82.066 38.6044L81.7113 39.1135C80.5687 39.701 78.9528 39.7407 77.4144 39.4662C77.0991 37.1147 77.493 35.1165 77.3744 32.7657C78.833 32.6483 80.5269 32.4912 81.6296 33.0792C82.1029 33.8617 82.4969 34.803 82.4575 35.7046C82.4176 36.1355 82.4176 36.5664 82.3002 37.0371C82.3056 37.3507 82.345 37.7034 82.2263 37.9772Z" fill="#00B4C1"/>
<path d="M106.333 53.2965L106.129 52.2878C105.947 51.5613 105.801 50.8017 105.66 50.0669C105.559 49.5432 105.459 49.0208 105.341 48.4864C105.263 48.1746 105.159 47.8845 105.063 47.5986C104.958 47.3177 104.87 47.0305 104.801 46.7386C104.673 45.9339 104.559 45.2471 104.403 44.5267C104.167 43.27 103.9 42.1072 103.642 40.9823C103.375 39.8213 103.123 38.7253 102.903 37.5336C102.804 37.0834 102.715 36.6435 102.627 36.2095C102.474 35.4476 102.315 34.6591 102.107 33.8574L101.804 32.7554L101.604 31.4957L101.448 30.8162C101.223 29.8532 100.991 28.8559 100.867 27.8364L100.774 27.0702L100.323 27.2195C100.246 27.188 100.164 27.1697 100.081 27.1653C97.8007 26.9438 95.9052 26.8674 94.0896 27.2146L93.8548 27.2592L93.7077 27.447C93.4142 27.8237 93.3192 28.2486 93.2357 28.623C93.2133 28.7235 93.1909 28.824 93.1697 28.9023C93.0768 29.234 93.0076 29.5719 92.9627 29.9134C92.9339 30.1316 92.8934 30.3482 92.8417 30.5622L92.7158 31.1436C92.6637 31.4746 92.619 31.8057 92.5748 32.1301C92.5203 32.5309 92.4677 32.9209 92.3993 33.3073C92.3696 33.5108 92.3388 33.6871 92.2861 33.778L92.2256 33.9068C92.1124 34.2456 92.0138 34.5412 91.9992 35.0034C91.8685 35.339 91.7779 35.6886 91.7293 36.0452C91.641 36.6242 91.5284 37.2213 91.4188 37.7984C91.3032 38.4129 91.1925 38.9974 91.1223 39.5059C91.0528 39.5867 90.9998 39.6801 90.9662 39.781L90.8905 40.0085L90.9583 40.165C90.9419 40.2023 90.9153 40.2541 90.8978 40.295C90.8608 40.3666 90.8233 40.4394 90.7912 40.5147L90.6357 41.2971L90.3265 42.4882L90.315 42.5423C90.2236 43.0894 90.1594 43.6702 90.0977 44.2324C90.0553 44.6182 90.0148 44.9865 89.9688 45.3061L89.947 45.3627C89.8453 45.6239 89.7303 45.9176 89.717 46.3576L89.3345 47.7677C89.2347 48.2456 89.153 48.7133 89.0743 49.1815C88.9968 49.6341 88.9194 50.0843 88.8225 50.5496L88.8122 50.6158C88.7716 51.0046 88.6992 51.3895 88.5956 51.7665L88.5157 52.2733C88.3807 53.1887 88.2409 54.1355 88.0733 54.9035L88.0569 54.9751C88.011 55.1719 87.8893 55.6973 88.3541 56.0416L88.4836 56.1385L88.6446 56.1614C89.2644 56.2414 89.8891 56.2787 90.5141 56.2727C91.5496 56.2727 92.6087 56.1969 93.4372 56.1264L93.8469 56.0915L93.9819 55.7057C94.3722 54.5935 94.6119 53.4187 94.8437 52.2884C94.9393 51.8207 95.038 51.3416 95.1463 50.8734C95.789 50.8613 96.3742 50.8294 96.9431 50.7981C97.7753 50.7524 98.5675 50.7085 99.4517 50.7379C99.5637 51.4072 99.7144 51.997 99.8717 52.6134C99.9589 52.9546 100.048 53.3043 100.137 53.6967C100.183 53.8821 100.233 54.0506 100.281 54.2149C100.393 54.5923 100.489 54.9179 100.513 55.3801L100.536 55.8081L100.864 55.9176L101.062 56.1162L101.299 56.1325C102.898 56.2408 104.134 56.1529 105.565 56.0512L106.405 55.991L106.575 55.7094C106.828 55.2923 106.657 54.9372 106.575 54.7759L106.333 53.2965ZM95.4677 45.3085C96.0983 42.6441 96.7283 40.0578 97.2016 37.3934C97.2016 38.2962 97.7529 39.4313 97.9496 40.3323C98.3829 42.0566 98.6589 43.7027 98.9742 45.2303C97.9103 45.2694 96.689 45.4265 95.4677 45.3085Z" fill="#00B4C1"/>
<path d="M115.564 50.4176L115.407 48.7926C115.336 47.6779 115.384 46.547 115.431 45.4528C115.46 44.7637 115.488 44.1125 115.488 43.4667C115.488 43.383 115.484 43.2717 115.481 43.1453C115.466 42.8405 115.467 42.5351 115.485 42.2305V42.1703C115.49 42.104 115.503 42.0385 115.523 41.9753L115.545 41.8916L115.564 41.7393C115.564 41.5588 115.554 41.3782 115.545 41.179C115.535 40.9798 115.525 40.7794 115.525 40.5639V40.0541C115.525 40.0024 115.528 39.9476 115.532 39.891C115.549 39.712 115.545 39.5317 115.521 39.3535C115.509 39.2093 115.455 39.0718 115.364 38.9587C115.35 38.7312 115.354 38.5029 115.378 38.2762C115.393 38.0818 115.406 37.888 115.406 37.7032C115.406 36.1871 115.406 34.7541 115.367 33.3933C115.367 32.919 115.372 32.4519 115.377 31.9915C115.392 30.6006 115.406 29.2867 115.286 27.9675L115.255 27.6358L114.963 27.4739C114.512 27.2247 113.994 27.2302 113.488 27.2362H113.275C111.912 27.2362 110.903 27.2861 110.007 27.3981L109.61 27.4474L109.549 27.628H109.242L109.254 28.2708C109.28 29.6244 109.272 31.0574 109.263 32.5747C109.259 33.3794 109.254 34.2118 109.254 35.0767V35.0899C109.28 36.3219 109.272 37.77 109.263 39.303C109.259 40.092 109.254 40.8979 109.254 41.7104C109.268 42.5212 109.291 43.3409 109.315 44.1504C109.358 45.7104 109.4 47.1838 109.375 48.5067L109.358 49.3908C109.319 51.3295 109.278 53.3343 109.419 55.5299L109.433 55.7706L109.603 55.9391C109.99 56.3243 110.492 56.3358 110.859 56.3448C110.95 56.3448 111.04 56.3484 111.112 56.3538C111.499 56.4046 111.89 56.4302 112.281 56.4303C112.766 56.4291 113.25 56.3915 113.729 56.3177C113.833 56.3093 113.934 56.3075 114.032 56.3057C114.415 56.2973 114.892 56.287 115.324 55.9524L115.554 55.7718L115.568 55.4823C115.646 53.8091 115.646 52.1618 115.564 50.4176Z" fill="#00B4C1"/>
<path d="M32.9396 18.8058C32.9009 18.8248 32.8712 18.8581 32.8569 18.8986C32.8426 18.9392 32.845 18.9836 32.8634 19.0225L34.7685 22.9159C34.7821 22.9435 34.8031 22.9667 34.8292 22.9829C34.8553 22.9992 34.8854 23.0079 34.9162 23.008C34.9441 23.008 34.9715 23.0009 34.9959 22.9874C35.0202 22.9739 35.0407 22.9545 35.0555 22.931C35.0703 22.9075 35.0788 22.8806 35.0802 22.8529C35.0817 22.8252 35.0761 22.7976 35.0639 22.7727L33.1587 18.8792C33.1393 18.8407 33.1054 18.8114 33.0644 18.7976C33.0233 18.7838 32.9785 18.7868 32.9396 18.8058Z" fill="#00B4C1"/>
<path d="M35.8715 15.5247C35.8579 15.5657 35.8613 15.6104 35.8808 15.649C35.9003 15.6876 35.9344 15.7169 35.9756 15.7305L40.1091 17.0895C40.1257 17.0953 40.1431 17.0981 40.1606 17.098C40.1998 17.0983 40.2378 17.0846 40.2678 17.0594C40.2977 17.0342 40.3176 16.9992 40.3238 16.9607C40.33 16.9222 40.3222 16.8828 40.3017 16.8496C40.2812 16.8163 40.2494 16.7915 40.212 16.7796L36.0785 15.4224C36.0374 15.4088 35.9926 15.4119 35.9538 15.4311C35.915 15.4503 35.8854 15.4839 35.8715 15.5247Z" fill="#00B4C1"/>
<path d="M20.1635 10.5454L24.2964 11.902C24.3129 11.9077 24.3303 11.9105 24.3478 11.9104C24.387 11.9107 24.425 11.897 24.455 11.8718C24.4849 11.8467 24.5048 11.8117 24.511 11.7732C24.5172 11.7347 24.5094 11.6952 24.4889 11.662C24.4684 11.6288 24.4366 11.6039 24.3993 11.592L20.2663 10.2348C20.2459 10.2281 20.2243 10.2254 20.2028 10.227C20.1813 10.2286 20.1603 10.2344 20.1411 10.244C20.1218 10.2536 20.1047 10.267 20.0906 10.2832C20.0765 10.2994 20.0658 10.3183 20.0591 10.3386C20.0523 10.359 20.0496 10.3804 20.0512 10.4018C20.0528 10.4232 20.0586 10.444 20.0683 10.4632C20.078 10.4823 20.0914 10.4994 20.1077 10.5134C20.1241 10.5274 20.143 10.538 20.1635 10.5447V10.5454Z" fill="#00B4C1"/>
<path d="M35.6985 11.0161C35.7241 11.0162 35.7494 11.0102 35.7723 10.9986L39.7061 9.02751C39.7254 9.01787 39.7425 9.00456 39.7565 8.98833C39.7706 8.9721 39.7813 8.95328 39.7881 8.93293C39.7948 8.91259 39.7974 8.89112 39.7959 8.86976C39.7943 8.8484 39.7884 8.82756 39.7787 8.80844C39.769 8.78931 39.7557 8.77227 39.7393 8.75829C39.723 8.74431 39.7041 8.73366 39.6836 8.72695C39.6632 8.72024 39.6416 8.71761 39.6201 8.7192C39.5986 8.72079 39.5777 8.72657 39.5584 8.73621L35.6246 10.7067C35.5919 10.7234 35.5657 10.7506 35.5503 10.7839C35.5349 10.8171 35.5311 10.8546 35.5396 10.8902C35.5481 10.9258 35.5684 10.9576 35.5972 10.9804C35.626 11.0032 35.6616 11.0158 35.6985 11.0161Z" fill="#00B4C1"/>
<path d="M27.4095 8.25267C27.4234 8.27937 27.4444 8.30175 27.4702 8.31735C27.4961 8.33296 27.5257 8.34119 27.5559 8.34114C27.582 8.34103 27.6077 8.33485 27.631 8.32309C27.6696 8.30318 27.6987 8.26891 27.7119 8.22776C27.7252 8.1866 27.7215 8.1419 27.7018 8.10341L25.6732 4.17443C25.6633 4.15538 25.6498 4.13845 25.6333 4.1246C25.6169 4.11075 25.5979 4.10026 25.5774 4.09372C25.5569 4.08718 25.5353 4.08473 25.5138 4.08649C25.4923 4.08826 25.4714 4.09421 25.4523 4.10401C25.4331 4.11381 25.4161 4.12727 25.4022 4.14361C25.3882 4.15996 25.3777 4.17887 25.3711 4.19927C25.3645 4.21967 25.3621 4.24115 25.3638 4.2625C25.3656 4.28385 25.3716 4.30464 25.3815 4.32369L27.4095 8.25267Z" fill="#00B4C1"/>
<path d="M32.0807 7.94849C32.0976 7.95374 32.1151 7.95637 32.1328 7.95632C32.1673 7.95637 32.2009 7.94557 32.2288 7.92546C32.2568 7.90535 32.2776 7.87697 32.2883 7.84437L33.5738 3.97257C33.5875 3.93147 33.5842 3.88663 33.5647 3.84791C33.5452 3.8092 33.511 3.77978 33.4697 3.76613C33.4284 3.75248 33.3833 3.75572 33.3443 3.77514C33.3054 3.79455 33.2758 3.82855 33.2621 3.86965L31.9767 7.74326C31.9634 7.78421 31.9669 7.82869 31.9864 7.8671C32.0059 7.90551 32.0398 7.93475 32.0807 7.94849Z" fill="#00B4C1"/>
<path d="M42.5868 38.643V38.1332C42.5868 38.0814 42.5916 38.0267 42.5958 37.9701C42.6145 37.7912 42.611 37.6107 42.5856 37.4326C42.5759 37.3384 42.5471 37.247 42.5008 37.1642L42.453 31.955C42.473 30.6448 42.4851 29.3977 42.3622 28.1476L42.3296 27.8154L42.0046 27.6523C41.5053 27.4019 40.9279 27.4055 40.3705 27.4116H40.1333C38.6203 27.4067 37.4994 27.4525 36.5021 27.5614L36.0609 27.609L35.9931 27.7895H35.6524L35.6639 28.4323C35.6875 29.7859 35.6741 31.219 35.659 32.7363C35.6511 33.541 35.6433 32.2716 35.6409 33.1365V33.1497C35.6503 33.4761 35.6767 33.8017 35.7201 34.1254L35.7692 41.9093C35.607 49.6962 32.6076 49.6962 30.4167 49.6962C27.2092 49.6962 25.4741 45.8154 25.4668 45.7991L25.3179 45.4886C23.3389 41.8605 21.2782 37.2587 18.6661 30.6382L24.6147 24.4895L27.3629 27.7119C27.4116 27.7739 27.4771 27.8208 27.5517 27.847C27.6262 27.8733 27.7068 27.8778 27.7839 27.86C27.861 27.8422 27.9313 27.8029 27.9867 27.7467C28.0421 27.6905 28.0801 27.6198 28.0964 27.5428L31.451 12.7802C31.4681 12.7005 31.4611 12.6175 31.4308 12.5417C31.4006 12.466 31.3484 12.4008 31.281 12.3545C31.2136 12.3081 31.1338 12.2827 31.0519 12.2813C30.9699 12.28 30.8894 12.3028 30.8204 12.3469L16.5842 18.3414C16.516 18.3848 16.462 18.447 16.4288 18.5205C16.3957 18.594 16.3849 18.6755 16.3978 18.755C16.4106 18.8345 16.4466 18.9086 16.5012 18.968C16.5559 19.0275 16.6268 19.0697 16.7053 19.0896L20.6778 21.0318L13.6072 27.7799C13.1903 27.4645 12.7448 27.1148 12.2582 26.7116C12.1977 25.0968 12.3738 22.5015 12.3188 20.4257L12.2026 14.3703C11.5653 14.1392 10.9268 14.1392 10.2895 14.082C10.1152 14.082 10.3059 13.9665 10.1316 13.9665C9.60988 13.7938 8.7396 13.7938 8.10232 13.8509C7.23264 14.0243 6.18867 14.0243 5.43458 14.5431C5.43458 16.6773 5.43458 18.5804 5.49511 20.829C5.49511 21.3484 5.43458 22.0405 5.43458 22.7321C5.49511 24.8085 5.37406 26.8849 5.43458 28.9608C5.42576 29.3653 5.44599 29.77 5.49511 30.1717C5.49511 31.0366 5.43458 31.9015 5.37891 32.767C5.37891 33.1702 5.49511 33.4013 5.49511 33.6896C5.49511 34.6701 5.55563 35.7077 5.49511 36.6881C5.49511 39.2834 5.43458 41.7053 5.49511 44.4161C5.6688 47.8762 5.26331 52.794 5.43458 56.3119C5.66638 56.4847 5.84068 56.1964 6.07247 56.1392C6.47856 56.079 6.88405 56.3119 7.34824 56.3119C7.52193 56.3119 7.46444 56.2517 7.63873 56.2517C7.81303 56.2517 7.87053 56.3119 8.04361 56.3119C8.7402 56.3691 9.07246 56.3119 9.76723 56.2517C10.4626 56.2517 11.1592 56.3667 11.9127 56.3667C11.9702 56.194 12.1445 56.3095 12.3188 56.1368C12.7824 51.7534 12.0864 46.3745 12.2582 42.2223C12.2582 41.3568 12.2582 40.6075 12.3188 39.7426L12.3793 39.6824C12.4398 39.4519 12.7273 39.1636 12.9016 38.9331L13.4233 38.1254L14.043 37.2226C15.9857 41.9219 17.6621 45.5283 19.304 48.5521C20.6246 51.5548 24.3635 56.416 30.4228 56.416C35.8218 56.416 42.306 53.9135 42.5378 41.9911V41.9478L42.5275 40.3119C42.5317 40.3083 42.539 40.3065 42.5396 40.3017V40.2451C42.5451 40.1785 42.5596 40.1129 42.5825 40.0501L42.6073 39.9665L42.6285 39.8136C42.6285 39.6366 42.6195 39.4525 42.6092 39.2533C42.5989 39.054 42.5862 38.8596 42.5868 38.643Z" fill="#00B4C1"/>
</svg>
