<svg width="304" height="304" viewBox="0 0 304 304" fill="none" xmlns="http://www.w3.org/2000/svg">
<g filter="url(#filter0_d_4071_42097)">
<rect x="12" y="8" width="280" height="280" rx="140" fill="#F26722"/>
</g>
<rect x="114.688" y="83" width="81.5386" height="110.933" rx="10" fill="#F9F6F2"/>
<path d="M187.598 199.026L176.198 204.178C175.73 204.389 175.214 204.465 174.705 204.396C174.195 204.328 173.712 204.118 173.307 203.79C172.902 203.461 172.591 203.027 172.406 202.533C172.222 202.039 172.172 201.504 172.262 200.986L174.024 190.606C174.272 189.13 174.869 187.744 175.762 186.567L179.471 181.699L192.665 192.362L187.598 199.026Z" fill="#00B4C1"/>
<path d="M200.175 154.343L179.566 181.59L192.734 192.303L213.343 165.057L200.175 154.343Z" fill="#F9CF1C"/>
<path d="M200.228 154.292L203.61 149.852C204.758 148.336 206.74 147.955 208.029 148.995L216.535 155.868C217.824 156.909 217.934 158.98 216.78 160.496L213.401 164.936L200.228 154.292Z" fill="#00B4C1"/>
<path d="M184.691 101.832H125.403C124.035 101.832 122.926 102.981 122.926 104.398V105.184C122.926 106.601 124.035 107.749 125.403 107.749H184.691C186.059 107.749 187.168 106.601 187.168 105.184V104.398C187.168 102.981 186.059 101.832 184.691 101.832Z" fill="#FFD600"/>
<path d="M184.691 114.777H125.403C124.035 114.777 122.926 115.926 122.926 117.343V118.129C122.926 119.546 124.035 120.695 125.403 120.695H184.691C186.059 120.695 187.168 119.546 187.168 118.129V117.343C187.168 115.926 186.059 114.777 184.691 114.777Z" fill="#FFD600"/>
<path d="M184.691 127.727H125.403C124.035 127.727 122.926 128.875 122.926 130.292V131.078C122.926 132.495 124.035 133.644 125.403 133.644H184.691C186.059 133.644 187.168 132.495 187.168 131.078V130.292C187.168 128.875 186.059 127.727 184.691 127.727Z" fill="#FFD600"/>
<path d="M160.074 140.672H124.416C123.593 140.672 122.926 141.814 122.926 143.224V144.005C122.926 145.414 123.593 146.557 124.416 146.557H160.074C160.897 146.557 161.564 145.414 161.564 144.005V143.224C161.564 141.814 160.897 140.672 160.074 140.672Z" fill="#FFD600"/>
<defs>
<filter id="filter0_d_4071_42097" x="0" y="0" width="304" height="304" filterUnits="userSpaceOnUse" color-interpolation-filters="sRGB">
<feFlood flood-opacity="0" result="BackgroundImageFix"/>
<feColorMatrix in="SourceAlpha" type="matrix" values="0 0 0 0 0 0 0 0 0 0 0 0 0 0 0 0 0 0 127 0" result="hardAlpha"/>
<feOffset dy="4"/>
<feGaussianBlur stdDeviation="6"/>
<feComposite in2="hardAlpha" operator="out"/>
<feColorMatrix type="matrix" values="0 0 0 0 0 0 0 0 0 0 0 0 0 0 0 0 0 0 0.2 0"/>
<feBlend mode="normal" in2="BackgroundImageFix" result="effect1_dropShadow_4071_42097"/>
<feBlend mode="normal" in="SourceGraphic" in2="effect1_dropShadow_4071_42097" result="shape"/>
</filter>
</defs>
</svg>
