<svg width="304" height="304" viewBox="0 0 304 304" fill="none" xmlns="http://www.w3.org/2000/svg">
<g filter="url(#filter0_d_4071_42101)">
<rect x="12" y="8" width="280" height="280" rx="140" fill="#45B64A"/>
</g>
<path d="M214.128 81.6176C198.33 73.4564 175.259 84.9752 156.833 108.172C138.407 84.9722 115.337 73.4533 99.5391 81.6145C79.4941 91.9723 78.7432 130.086 97.8618 166.747C110.594 191.163 128.928 208.775 145.677 214.758C149.167 216.365 152.99 217.128 156.833 216.982C160.676 217.128 164.499 216.367 167.99 214.761C184.739 208.778 203.076 191.172 215.805 166.75C234.923 130.089 234.173 91.9754 214.128 81.6176Z" fill="#3366CC"/>
<defs>
<filter id="filter0_d_4071_42101" x="0" y="0" width="304" height="304" filterUnits="userSpaceOnUse" color-interpolation-filters="sRGB">
<feFlood flood-opacity="0" result="BackgroundImageFix"/>
<feColorMatrix in="SourceAlpha" type="matrix" values="0 0 0 0 0 0 0 0 0 0 0 0 0 0 0 0 0 0 127 0" result="hardAlpha"/>
<feOffset dy="4"/>
<feGaussianBlur stdDeviation="6"/>
<feComposite in2="hardAlpha" operator="out"/>
<feColorMatrix type="matrix" values="0 0 0 0 0 0 0 0 0 0 0 0 0 0 0 0 0 0 0.2 0"/>
<feBlend mode="normal" in2="BackgroundImageFix" result="effect1_dropShadow_4071_42101"/>
<feBlend mode="normal" in="SourceGraphic" in2="effect1_dropShadow_4071_42101" result="shape"/>
</filter>
</defs>
</svg>
