<svg width="228" height="228" viewBox="0 0 228 228" fill="none" xmlns="http://www.w3.org/2000/svg">
<g clip-path="url(#clip0_4071_42110)">
<path d="M64.5427 86.8878C64.6772 87.3803 64.4081 88.0506 64.3648 88.5408C64.187 88.6753 64.0525 88.6297 63.9635 88.4519L58.4209 88.363C56.8568 88.3174 55.3816 88.5864 53.6397 88.632C51.6743 88.7665 50.0191 88.6776 48.0993 88.6776C47.9648 88.5431 47.8759 88.5887 47.7413 88.4542C47.6068 86.6667 47.7413 84.9247 47.6068 83.1805C47.5612 82.3324 47.6524 81.4386 47.6068 80.5882C47.4723 78.8463 47.5612 77.2366 47.6068 75.449C47.6524 75.2712 47.5612 75.18 47.6957 75.0478C47.5612 74.8243 47.6957 74.6465 47.6957 74.423C47.6957 73.8872 47.6068 73.3515 47.6068 72.859C47.5612 72.3665 47.5612 71.9652 47.5612 71.4727C47.5156 71.0714 47.4723 70.49 47.6068 70.1321C47.5612 68.3902 47.6957 66.1991 47.5612 64.2337C47.5612 64.1881 47.5612 64.1881 47.5156 64.1448V64.0103H47.5612C47.6068 61.8215 47.6068 59.4959 47.6068 57.5305C47.7413 57.4416 47.8303 57.3527 47.8303 57.2182C51.7633 56.9058 55.6963 57.2638 59.6726 57.0837C60.9243 57.0381 62.176 57.1726 63.4277 57.1726C63.7857 57.1726 64.0981 57.0837 64.456 57.2182C64.456 57.3071 64.5016 57.4872 64.5449 57.7996C64.5905 58.023 64.5905 58.381 64.7228 58.6044C64.7228 59.7216 64.8117 60.5264 64.5883 61.5547C64.5883 61.9127 64.4993 62.4941 64.3648 62.8954C63.8723 63.0299 63.4711 62.8954 63.0698 62.8954C62.2216 62.8498 61.5946 62.8954 60.7465 62.8954C59.9872 62.8954 59.2713 62.8065 58.5577 62.8065C56.8157 62.8521 55.0715 62.8065 53.2384 62.8065C53.2384 63.1188 53.2384 63.2533 53.284 63.2989V63.3879C53.284 63.9237 53.2384 64.4161 53.1951 64.9519L53.1495 64.9975C53.1039 66.8307 52.8371 68.7071 53.3729 70.2712C55.1149 70.2712 57.3493 70.0933 58.9589 70.2712C59.4514 70.1367 59.8983 70.2256 60.4341 70.2256C60.5686 70.2256 60.7031 70.2712 60.8354 70.2712C61.1477 70.2712 61.5946 70.1823 61.907 70.3168C62.2193 71.7463 62.3539 73.714 61.9959 75.5015C61.6835 75.5471 61.3712 75.5471 61.0565 75.5471C59.9393 75.5015 58.8677 75.4582 57.7505 75.5015C57.7505 75.5471 57.7505 75.5904 57.7049 75.5471C56.3187 75.4126 54.9347 75.5471 53.3707 75.5471C53.2361 77.6926 53.0583 80.7318 53.2817 83.0551C56.1865 83.0551 59.4947 83.3242 62.3539 83.1896C62.5773 83.1896 62.7551 83.1441 62.9353 83.0551C63.2476 83.1897 63.6945 83.0095 64.0069 83.144C64.1847 83.0095 64.3192 82.9662 64.4537 83.0551C64.6772 84.072 64.9006 85.6817 64.5427 86.8878Z" fill="#F9F6F2"/>
<path d="M85.4148 64.3613C85.5493 65.4785 85.3258 66.6846 85.2802 67.893C84.7444 68.1165 84.1174 68.0709 83.5383 68.0709C83.137 68.0709 82.7791 68.1165 82.3755 68.1165C81.972 68.1165 81.6163 68.1621 81.2583 68.1165C81.1238 68.1165 81.1238 68.0275 80.9893 68.0275C80.4968 67.893 80.1411 67.982 79.7832 67.6696C79.7376 66.9537 79.9177 66.0166 79.7832 65.1662C79.6486 64.4958 79.6053 63.8711 79.2474 63.333C79.0239 62.9751 78.7549 62.7083 78.4425 62.5738C78.308 62.5282 78.1735 62.5738 77.9956 62.5738C77.5944 62.4393 77.2797 62.2614 76.7895 62.3048C76.7439 62.3048 76.4772 62.3937 76.0303 62.5282C75.5378 62.706 75.1365 62.7516 74.8242 63.064C74.5118 63.2418 74.4662 63.5565 74.2428 63.8688C74.1082 64.5392 74.1972 65.2551 74.4662 66.1032C74.7786 66.9514 75.3144 67.5784 75.8524 68.2487C76.0303 68.4265 76.1648 68.6956 76.3449 68.8734C76.4794 69.0513 76.6573 69.1425 76.8374 69.3203C77.3299 69.7216 77.7768 70.1685 78.267 70.5264C79.0262 71.0189 79.6532 71.5547 80.2323 72.1361C80.6336 72.2706 80.8137 72.6286 81.1261 72.941C81.6186 73.4334 81.9742 73.7002 82.4667 74.1927C82.9592 74.6852 83.4494 75.221 83.8074 75.8913C84.2086 76.2492 84.3432 76.9629 84.6555 77.501C84.79 77.8133 84.9246 77.9478 84.9679 78.1713C85.0135 78.3947 84.9679 78.6182 85.0135 78.8416C85.0135 79.0194 85.148 79.154 85.148 79.3341C85.1936 79.6464 85.1936 79.8699 85.1936 80.1822C85.3281 81.7919 84.9246 82.8635 84.6122 83.9807C84.4777 84.382 84.3432 84.8289 84.1653 85.1435C84.0308 85.367 83.8074 85.5448 83.6728 85.7682L83.4494 86.0806L83.1804 86.3496C83.0458 86.4842 83.1348 86.5731 83.0025 86.7076L82.8247 86.8421C82.5123 87.1545 82.2433 87.4668 81.7531 87.6014C81.4407 87.7792 81.1717 87.9137 80.9482 88.1372C80.7704 88.1372 80.6792 88.2717 80.5014 88.2261C79.6532 88.6274 78.9373 88.584 78.0435 88.7185C77.909 88.7185 77.909 88.8075 77.7745 88.8075C77.64 88.8075 77.4621 88.7185 77.3276 88.7619C76.7918 88.7619 76.0326 88.8075 75.3622 88.8075C75.1388 88.8075 74.8264 88.8964 74.6919 88.7619C74.5574 88.7619 74.4685 88.8075 74.334 88.7619C73.7982 88.584 72.8588 88.4928 72.5464 88.0026C72.4119 88.0482 72.2341 88.0026 72.0996 87.8681C71.7872 87.7336 71.4748 87.4212 71.4292 87.2867C71.0713 87.2411 70.9824 87.0177 70.67 86.8854C70.67 86.7509 70.5355 86.7076 70.5811 86.662C70.0453 86.3496 69.9108 85.6793 69.4183 85.1868C69.4639 85.0523 69.3727 85.0979 69.4183 84.9634C68.748 83.8918 68.7936 82.6401 68.5701 81.3428C68.5701 81.2538 68.5701 81.2082 68.6157 81.1649C68.3923 80.1366 68.5268 78.8849 68.7046 78.0368C70.3576 77.4554 72.1452 77.9022 73.8894 77.9478C74.0239 78.0824 73.9783 78.1257 74.1128 78.1713C74.1128 79.9588 73.8894 82.3277 74.961 83.2671C75.6769 83.4905 76.4361 83.9374 77.2843 83.7596C78.3126 83.5361 78.9373 82.7769 79.5187 82.2411C80.0112 80.946 79.4731 79.4709 78.9829 78.4426C78.0891 77.1909 76.614 76.5206 75.5857 75.3144C75.4512 75.3144 75.5401 75.2688 75.4078 75.2255C75.1844 74.9132 74.7831 74.733 74.5597 74.4207C74.3362 74.3751 74.2473 74.2428 74.2017 74.0627C73.9783 73.9282 73.6659 73.7504 73.5314 73.438C73.0389 73.3035 72.9067 72.9455 72.592 72.6332C72.3686 72.4553 72.1908 72.3641 72.0106 72.1407L71.5638 71.7827C71.2514 71.4703 70.8478 71.2013 70.4922 70.8434L70.0909 70.4854C69.7785 70.173 69.6896 69.7695 69.375 69.4571C68.8392 68.4288 68.5268 67.3572 68.5701 65.9254C68.5701 65.7909 68.4812 65.6564 68.4812 65.5241C68.4356 65.2118 68.4812 64.8082 68.4812 64.4958C68.6157 63.7366 68.659 62.9318 68.9737 62.2158C68.9737 61.68 69.2427 61.3221 69.4206 60.8296C69.5551 60.6062 69.644 60.3827 69.7785 60.2049C70.0909 59.8036 70.4488 59.5802 70.6723 59.1766L71.0736 58.8186C71.7439 58.2372 72.6832 57.747 73.6203 57.3891L74.7831 56.9878C75.2756 56.8533 75.8547 56.81 76.3472 56.7644C76.7052 56.7188 77.0631 56.7188 77.3755 56.7188L79.0741 56.8533C79.7444 56.8989 80.1024 57.0767 80.5926 57.3002C80.7704 57.6125 81.2629 57.7014 81.5752 57.8816C82.2912 58.2828 82.738 58.9098 83.4084 59.4C84.0787 60.2938 84.7034 61.2332 85.018 62.4826C85.148 63.0663 85.3714 63.691 85.4148 64.3613Z" fill="#F9F6F2"/>
<path d="M106.599 63.3793C106.776 64.9433 106.776 66.284 106.644 68.0715C106.51 69.1887 106.421 70.2603 106.108 71.1997C105.931 71.6921 105.796 72.139 105.616 72.4947C105.304 73.0305 104.9 73.3429 104.41 73.7464L103.069 74.7747C102.041 75.3105 100.969 75.7141 99.583 75.8919C98.288 76.0697 96.9018 75.9808 95.6044 76.0264C95.4266 78.0374 95.4266 80.1373 95.4266 81.9248C95.4266 82.8641 95.4722 83.5778 95.4266 84.6061C95.381 85.8578 95.4722 87.0183 95.4266 88.27C94.3983 88.4935 93.5046 88.8514 92.433 88.7169C91.5848 88.6713 91.0923 88.4935 90.2442 88.4479C90.0663 87.5085 90.0207 86.3913 90.0663 85.1419C90.1119 83.9357 90.1119 82.7296 90.0663 81.5212C90.0663 80.4929 90.1552 79.5559 90.0207 78.5276C89.8862 77.4104 90.0207 76.2932 90.0207 75.176C90.0663 74.1477 90.0207 73.2539 90.0207 72.2257C90.0207 71.2863 90.1552 70.3925 90.1552 69.4988C90.1552 68.7829 90.1552 68.1581 90.1096 67.4878C90.1096 67.1755 90.1552 66.9953 90.1552 66.683C90.1552 66.4595 90.1096 66.1905 90.1096 65.9671C90.064 65.1189 90.1986 64.2251 90.1552 63.3747C90.1096 62.8822 90.0663 62.5699 90.1096 62.0797C90.1096 61.6784 90.1552 61.2748 90.1096 60.7846C90.1096 60.2921 89.9751 59.9798 89.9751 59.5785C89.9751 58.9082 90.0207 58.06 89.9751 57.3441C90.1096 57.2096 90.1986 57.2552 90.3331 57.1207C91.2724 56.9861 92.6564 57.2096 93.7736 57.2552C94.6218 57.2552 95.3833 57.1207 96.2314 57.2552C96.7239 57.1207 97.3486 57.2552 97.93 57.2552C98.4225 57.3008 98.8238 57.2096 99.2251 57.3441C99.3596 57.3441 99.4485 57.433 99.583 57.433C99.9843 57.4786 100.388 57.433 100.746 57.5675C101.594 57.791 102.356 58.0144 103.204 58.3724C103.696 58.5502 103.828 58.6414 104.232 58.9971C104.59 59.3551 104.813 59.7563 105.126 60.1143C105.304 60.3377 105.438 60.4723 105.573 60.6957C105.796 61.0081 105.974 61.4549 106.154 61.9474C106.284 62.351 106.464 62.8435 106.599 63.3793ZM100.34 63.0213C99.0883 62.351 97.1662 62.5288 95.5132 62.6633C95.6478 65.3446 95.2009 67.6246 95.5588 70.3059C97.3008 70.6183 99.1339 70.5749 100.431 69.9046L100.832 69.3232C100.878 69.2776 100.878 69.1454 100.878 68.8763C100.924 68.7418 101.013 68.7418 101.013 68.6073C101.147 68.2949 101.102 67.8914 101.102 67.5357C101.236 66.9999 101.236 66.5074 101.279 66.0172C101.325 64.9889 100.878 63.9151 100.34 63.0213Z" fill="#F9F6F2"/>
<path d="M127.918 87.9136C127.964 88.137 128.142 88.2259 128.007 88.4494C126.085 88.5839 124.656 88.7184 122.688 88.5839C122.642 88.5383 122.599 88.4494 122.464 88.406C122.419 87.5579 122.195 87.0654 122.018 86.3495C121.705 84.9632 121.347 83.8916 121.169 82.4621C118.981 82.3276 117.371 82.5966 115.091 82.5966C114.598 84.562 114.332 86.6641 113.661 88.5862C112.097 88.7207 109.952 88.8552 108.388 88.6318C108.21 88.4972 108.299 88.2738 108.342 88.0504C108.566 87.0221 108.743 85.727 108.924 84.5209C109.058 84.0284 109.147 83.5382 109.193 83.0914C109.416 82.0198 109.551 80.9915 109.774 79.9176L110.221 78.2646C110.221 77.7721 110.355 77.5054 110.49 77.1474C110.624 76.2536 110.713 75.0019 110.891 73.9303L111.249 72.5441L111.384 71.7848C111.518 71.4725 111.742 71.2034 111.607 70.8911C111.653 70.7566 111.742 70.8022 111.785 70.6676C111.919 69.5504 112.277 67.9864 112.501 66.5112C112.546 66.1099 112.679 65.7064 112.813 65.3484C112.813 64.8559 112.902 64.5892 113.037 64.1856C113.171 63.9622 113.215 63.6931 113.26 63.3808C113.395 62.6215 113.484 61.7711 113.618 60.9229L113.753 60.2982C113.887 59.8057 113.93 59.0465 114.111 58.4651C114.245 57.9726 114.288 57.4368 114.603 57.0355C116.703 56.6342 118.937 56.7665 121.217 56.9899C121.352 56.9899 121.306 57.1678 121.441 57.1244C121.619 58.5996 121.977 59.9836 122.289 61.3698L122.512 62.7994L122.87 64.0944C123.228 65.4806 123.452 66.8213 123.764 68.2508C124.257 70.9321 124.927 73.3466 125.463 76.2058C125.641 77.0539 125.775 77.8588 125.91 78.7092C126.044 79.3795 126.356 80.0498 126.534 80.7658C126.847 82.1953 127.07 83.6705 127.428 85.1L127.651 86.2172L127.829 87.2888L127.918 87.9136ZM120.009 76.8738C119.651 75.1319 119.339 73.2532 118.846 71.2878C118.623 70.2595 117.998 68.9645 117.998 67.9362C117.462 70.9754 116.746 73.9258 116.033 76.9627C117.417 77.0972 118.801 76.9194 120.009 76.8738Z" fill="#F9F6F2"/>
<path d="M148.252 79.6018C148.252 80.0031 148.297 80.4499 148.297 80.8535C148.297 81.2548 148.163 81.6583 148.163 82.0596C148.117 82.8189 147.985 83.5348 147.67 84.2051L146.911 85.5913C146.418 86.4851 145.57 86.8431 144.722 87.5134C144.23 87.8713 143.739 88.1381 143.069 88.3182C142.577 88.4527 141.863 88.6306 141.193 88.7651C140.7 88.8107 140.388 88.7195 140.03 88.854C139.314 88.7195 138.555 88.8084 137.795 88.6762C137.438 88.6306 137.036 88.6762 136.633 88.5417C135.962 88.3638 135.246 88.1404 134.711 87.6479C134.487 87.4701 134.398 87.2899 134.04 87.1554C133.639 86.574 133.281 86.1727 132.789 85.6803C132.654 85.1878 132.342 84.8754 132.118 84.4741C131.984 84.2963 131.94 84.0273 131.895 83.8038C131.76 83.5804 131.671 83.4025 131.626 83.1791C131.491 82.8211 131.537 82.4199 131.491 81.9274C131.491 81.4349 131.402 80.988 131.402 80.4978C131.357 80.0053 131.402 79.5585 131.402 79.0683C131.402 78.5758 131.448 78.0856 131.402 77.5931C131.268 76.8339 131.491 75.5365 131.491 74.7773C131.446 73.5712 131.222 72.3651 131.268 71.2912C131.268 70.9788 131.313 70.7987 131.313 70.4863V70.1284C131.313 69.9939 131.402 69.9505 131.402 69.816C131.402 69.5037 131.357 69.3235 131.357 69.0112C131.357 67.9829 131.311 66.6879 131.446 65.5707C131.491 64.9003 131.4 64.23 131.535 63.6486C131.669 63.0672 131.804 62.3969 131.981 61.8155C132.205 60.9673 132.428 60.2514 132.921 59.7156C133.055 59.0453 133.726 58.7329 134.396 58.375L135.917 57.5268C136.409 57.3034 136.856 57.0343 137.526 56.9021C137.839 56.8565 138.108 56.8565 138.42 56.8565C139.537 56.722 140.566 56.8565 141.594 56.991C142.086 57.1255 142.577 57.0366 143.069 57.1689C143.47 57.3034 143.828 57.5701 144.232 57.6157C144.455 57.9281 144.768 58.0626 145.08 58.2861C145.126 58.3317 145.126 58.4206 145.258 58.5551C145.392 58.6896 145.436 58.6007 145.57 58.7329L145.928 59.1342L146.241 59.5355C146.599 59.9368 146.911 60.3837 147.223 60.8305C148.071 62.5725 148.163 65.0759 148.028 67.5793C147.805 67.7139 147.581 67.7139 147.223 67.7139C146.553 67.7595 145.972 67.8917 145.123 67.8917C144.631 67.8917 144.319 67.9373 143.648 67.8028C143.156 67.6683 142.843 67.6683 142.62 67.4448C142.666 66.1498 142.843 64.7635 142.442 63.7353C142.308 63.5574 142.353 63.334 142.219 63.1995C141.817 62.4835 140.253 62.0367 139.134 62.2601C138.733 62.3057 138.375 62.4835 138.062 62.6181C137.75 62.7959 137.615 63.1105 137.303 63.2884C136.587 64.5834 137.034 66.2387 137.034 67.9806C137.034 70.6619 136.899 73.1653 136.945 75.6665C136.991 76.6948 137.034 77.6319 137.034 78.5712C137.034 79.5995 136.945 80.4933 137.168 81.5215C137.346 82.4153 137.839 82.8166 138.555 83.1745C139.314 83.3091 139.984 83.5758 140.7 83.2635C140.878 83.2179 141.101 82.9944 141.325 82.8622C141.683 82.6843 142.264 82.4609 142.488 82.1029C142.622 81.9251 142.533 81.6561 142.711 81.4782C142.577 80.6301 143.112 79.5129 142.8 78.3957C142.846 78.0833 142.889 77.9488 142.889 77.9488C143.828 77.5019 145.034 77.3674 146.421 77.5019C146.779 77.5475 147.18 77.6797 147.538 77.7253C147.85 77.7253 148.074 77.6797 148.254 77.8599C148.297 78.3957 148.252 78.9315 148.252 79.6018Z" fill="#F9F6F2"/>
<path d="M153.078 65.302C153.078 62.4429 153.124 59.8938 153.078 57.5249C153.256 57.5249 153.256 57.3904 153.302 57.2559C154.373 57.1214 155.536 57.078 156.922 57.078C157.504 57.078 158.085 57.0324 158.486 57.2559C158.664 59.2212 158.575 61.2345 158.575 63.3777C158.621 64.9418 158.621 66.5514 158.621 68.2934C158.621 68.8748 158.486 69.5451 158.621 70.0353C158.666 70.1698 158.755 70.1242 158.755 70.2587C158.801 70.4822 158.755 70.7512 158.755 70.9746V71.556C158.755 72.0485 158.801 72.4954 158.801 72.8967C158.755 73.0745 158.712 73.209 158.712 73.3892C158.666 73.8816 158.712 74.552 158.712 74.8643C158.712 76.7864 158.489 78.8862 158.623 80.9861L158.801 82.8626C158.89 84.7846 158.89 86.661 158.801 88.5375C158.4 88.8498 157.907 88.7609 157.371 88.8065C156.478 88.941 155.584 88.9844 154.556 88.8521C154.063 88.8065 153.573 88.8977 153.261 88.5831C153.083 85.724 153.172 83.1316 153.215 80.6282C153.261 78.3048 153.126 75.5324 153.08 72.8511C153.078 70.1721 153.124 67.4475 153.078 65.302Z" fill="#F9F6F2"/>
<path d="M180.474 75.1779C180.474 75.3124 180.428 75.3558 180.428 75.4903C180.428 77.9937 180.563 80.8984 179.981 82.9983C180.116 83.6686 179.803 84.2934 179.58 84.7858C179.268 85.2783 179.087 85.5018 178.732 85.992C178.374 86.4844 178.016 86.6623 177.526 87.0202L177.124 87.3782C176.812 87.556 176.543 87.7362 176.231 87.8707C175.606 88.2286 174.89 88.4954 174.131 88.6755C173.283 88.8534 172.521 89.1224 171.673 89.0768C171.315 89.0312 171.003 88.899 170.645 88.899C170.152 88.8534 169.885 88.899 169.482 88.7644L168.499 88.3176C168.187 88.0941 167.918 87.9596 167.651 87.8251L166.846 87.2893C166.354 86.888 165.952 86.3955 165.46 86.0376L164.879 85.2327C164.566 84.7402 164.254 84.1611 164.03 83.4908C163.853 82.8205 163.718 82.1958 163.672 81.3453C163.672 80.406 163.36 79.5578 163.495 78.5295C163.495 78.1716 163.495 77.9937 163.54 77.9481C163.54 77.5468 163.586 76.6964 163.586 76.2951C163.586 76.1173 163.54 75.9828 163.54 75.8482C163.495 73.9262 163.586 71.9152 163.586 69.9043V66.9106C163.586 65.6156 163.631 64.5873 163.675 63.2011C163.72 62.7998 163.629 62.3962 163.764 61.906C163.764 61.7715 163.898 61.637 163.941 61.5048C164.076 61.0123 164.21 60.6566 164.523 60.342C164.701 60.0296 164.97 59.8951 165.193 59.6716C165.729 59.0902 166.221 58.5088 166.981 58.1076C167.74 57.7063 168.634 57.5262 169.35 57.036C170.736 56.8125 172.254 56.4546 173.818 56.7669C174.354 56.9014 174.89 57.3027 175.428 57.4372L175.74 57.5262C176.634 57.8385 177.259 58.4655 177.975 58.8212C178.823 59.7606 179.227 60.8322 179.717 61.9494C180.209 63.0666 180.209 64.4961 180.209 65.7934L180.298 70.4424C180.344 71.1127 180.298 71.8286 180.298 72.4989C180.344 73.3471 180.209 74.1086 180.344 74.8678C180.385 74.9978 180.474 75.0434 180.474 75.1779ZM174.977 77.5446C174.931 76.6508 174.931 75.9349 174.931 75.3558C174.885 74.82 174.842 74.4164 174.977 73.9262C174.664 73.078 174.753 71.9152 174.708 70.8436C174.662 69.9955 174.797 68.8783 174.662 68.0278C174.616 67.3575 174.708 66.4182 174.662 65.57C174.662 65.1687 174.708 64.7652 174.662 64.3639C174.528 63.7825 174.215 63.2923 173.903 62.9776L173.59 62.8431C173.456 62.7086 173.501 62.6653 173.367 62.6197C173.321 62.5741 173.189 62.6197 173.144 62.5741L173.009 62.4396C172.786 62.305 172.517 62.2617 172.161 62.2617C171.491 62.3073 170.462 62.4396 169.881 62.932C169.703 63.0666 169.345 63.5568 169.211 63.7802C168.987 64.316 169.076 64.674 169.076 65.3443C169.076 68.7848 168.853 71.824 168.987 75.2212C169.033 76.473 169.211 77.8136 169.076 79.1086C169.03 80.3604 169.122 81.701 169.792 82.5492C169.838 82.6837 169.792 82.727 169.838 82.7726L170.419 83.2651C172.029 83.6664 173.458 83.3107 174.217 82.3713C174.263 82.2368 174.395 82.2824 174.441 82.1479C174.486 82.1023 174.441 81.97 174.486 81.9244C174.532 81.7899 174.621 81.7899 174.621 81.7466L174.71 81.3886C174.755 81.2541 174.844 81.1196 174.844 81.0763C174.979 80.5405 174.844 80.048 174.89 79.5578C175.022 78.8419 174.977 78.2149 174.977 77.5446Z" fill="#F9F6F2"/>
<path d="M54.9907 136.256C55.6588 137.532 56.4477 138.504 56.874 139.901C56.8125 139.901 56.7532 139.963 56.7532 140.145C56.3268 140.328 55.6588 140.51 55.1731 140.266C53.0482 140.69 51.0418 139.963 49.0377 140.022C48.3696 139.051 48.0664 137.895 47.3983 136.985C47.3983 136.682 47.2159 136.62 47.1544 136.317C44.6623 131.944 42.9022 127.206 40.5333 122.589L39.9861 123.44C39.8037 123.684 39.5004 123.987 39.4389 124.229L39.3773 124.29C39.3157 125.202 39.3157 125.991 39.3157 126.903C39.1333 131.276 39.8629 135.225 39.3773 139.842C39.1949 140.024 39.0125 139.904 38.9509 140.086C38.1621 140.086 37.4325 139.965 36.7029 139.965C35.9733 140.027 35.1844 140.086 34.4548 140.027C34.2724 140.027 34.2108 139.965 34.0307 139.965C33.8483 139.965 33.9076 140.027 33.7275 140.027C33.2418 140.027 32.8155 139.783 32.3914 139.844C32.1474 139.906 31.965 140.209 31.7233 140.027C31.5409 136.322 31.9673 132.858 31.7849 129.215C31.7233 126.36 31.7849 123.809 31.7849 121.075C31.8465 120.042 31.7849 118.948 31.7849 117.918C31.7849 117.614 31.6641 117.37 31.6641 116.946C31.7256 116.034 31.7849 115.125 31.7849 114.213C31.7233 113.786 31.7233 113.362 31.7233 112.936C31.6618 110.749 31.7849 108.563 31.7233 106.376C31.7233 105.647 31.7849 104.919 31.7849 104.372C31.7233 102.003 31.7233 99.999 31.7233 97.7509C32.5122 97.2037 33.6066 97.2037 34.5186 97.0213C35.1867 96.9597 36.0987 96.9597 36.6436 97.1421C36.826 97.1421 37.0699 97.263 37.2523 97.263C37.9204 97.3245 38.5884 97.3245 39.2565 97.5662L39.3773 103.946C39.4389 106.132 39.2565 108.866 39.3157 110.567C40.4694 109.169 41.3814 107.651 42.2934 106.011C42.9615 104.979 43.5087 104.007 44.236 102.974C44.5392 102.489 44.7832 101.942 45.0864 101.394C45.816 100.423 46.5433 99.4495 47.0905 98.4167C47.2729 98.2343 47.1521 98.0519 47.3345 97.8695C47.5169 97.6255 47.6993 97.5047 47.7609 97.263C48.6729 97.263 49.6441 97.019 50.5561 97.2014C52.1955 97.019 53.8371 97.5047 55.4764 97.5047C55.5379 97.6871 55.5379 97.8079 55.7203 97.9903C55.6588 98.4167 55.4171 98.6583 55.4171 99.144C54.9907 99.6296 54.8699 100.177 54.4458 100.845L53.8986 101.634L53.4745 102.484L52.9889 103.031C52.0176 104.429 51.2265 106.068 50.0728 107.345C49.8904 107.892 49.464 108.257 49.1608 108.743C49.0399 108.864 48.9784 109.046 48.9168 109.228C48.6729 109.532 48.3696 109.776 48.1257 110.2C47.9433 110.624 47.7609 110.868 47.5192 111.294C47.2752 111.597 46.972 111.841 46.7896 112.265C46.1215 113.177 45.8183 114.028 45.1503 114.938C45.8799 115.726 46.1831 116.882 46.6687 117.854C47.5807 119.979 48.4312 121.985 49.4025 123.989L50.8001 127.147C51.2265 128.18 51.7121 129.092 52.1362 130.245C52.5603 131.217 53.0482 132.19 53.5931 133.221C54.081 134.19 54.5051 135.223 54.9907 136.256Z" fill="#F9F6F2"/>
<path d="M76.5591 139.957C74.6758 140.381 72.7925 140.504 70.9092 140.26C69.9972 140.198 69.3908 140.016 68.7227 139.833C68.2371 139.651 67.7514 139.409 67.2658 139.165C66.7802 138.862 66.233 138.68 65.8089 138.377C65.2617 137.95 65.0793 137.526 64.4112 137.1C63.6224 135.946 62.6488 135.096 62.1632 133.698C61.9808 132.968 61.7368 132.3 61.6775 131.571C61.4951 130.173 61.4336 128.534 61.4336 127.075C61.4336 126.345 61.5544 125.677 61.616 125.009C61.616 124.038 61.1896 122.702 61.616 121.972C61.372 121.91 61.4951 121.365 61.4951 120.939C61.4951 117.964 61.3127 115.533 61.4951 111.887C61.6775 108.73 61.4951 105.508 61.4951 102.35C61.5567 100.832 61.6775 99.3133 61.4951 97.9156C61.5567 97.7332 61.7391 97.7332 61.7391 97.4916L64.5344 97.0059C65.9913 96.8235 67.4505 97.3092 68.9074 97.3707C69.4546 97.9179 68.8458 99.3748 69.1514 99.9836C68.9074 100.166 69.2129 100.469 69.0305 100.652C69.2129 101.684 69.0921 102.9 69.1514 104.053C69.1514 105.269 69.2129 106.484 69.1514 107.758C69.1514 109.886 69.2129 112.314 69.2129 114.927L69.0305 122.398C68.969 124.282 69.0921 126.165 69.1514 127.804C69.1514 128.958 68.969 129.931 69.3953 130.903C69.8217 131.936 70.549 132.542 71.7027 132.786C72.1268 132.848 72.674 133.03 73.342 132.968C73.5244 132.968 73.7068 132.848 73.8892 132.786C74.0716 132.724 74.254 132.786 74.4364 132.724C75.166 132.542 76.3197 131.936 76.5614 131.267C76.7438 131.024 76.6822 130.661 76.7438 130.355C76.9262 129.749 76.9262 129.261 76.7438 128.899C76.9262 127.442 76.8053 125.679 76.7438 123.978C76.6822 122.46 76.6822 120.394 76.6822 119.12C76.6822 119.058 76.8646 118.755 76.6206 118.755C76.6206 118.572 76.803 118.816 76.7415 118.572C76.7415 116.445 76.8623 114.138 76.9239 111.89V107.758C76.9239 106.119 76.8623 104.721 76.8623 102.959C76.8623 102.656 76.9832 102.353 76.9832 102.047C76.9832 101.744 76.9216 101.5 76.9216 101.197L77.0424 97.5508C77.4688 97.3684 78.0137 97.2476 78.6225 97.186C79.1697 97.1245 79.7762 97.0036 80.2025 97.0652C81.6002 96.6388 83.1802 97.0036 84.3932 97.43C84.4547 97.6124 84.3932 97.7948 84.5756 97.8564C84.758 101.258 84.2108 103.992 84.3932 107.211C84.4547 108.365 84.4547 109.398 84.4547 110.613C84.4547 112.982 84.3932 115.109 84.3932 117.355C84.3932 119.3 84.5756 121.304 84.3316 123.429C84.5756 124.886 84.2108 126.71 84.27 128.349C84.3316 129.079 84.4524 130.171 84.3909 130.839C84.3293 131.021 84.27 131.324 84.0876 131.751C83.9052 132.419 83.8437 133.452 83.602 134.241C83.5404 134.423 83.4196 134.423 83.4196 134.605C83.358 134.667 83.4196 134.788 83.358 134.97L82.9932 135.456C82.5669 136.124 82.3252 136.55 81.6572 137.095C81.2308 137.522 80.9276 137.884 80.5035 138.19C80.3211 138.372 80.0178 138.372 79.7739 138.554C79.5915 138.737 79.4091 138.798 79.1674 138.981L78.4378 139.284L77.6489 139.77L76.5591 139.957ZM61.6775 97.7994C61.7391 97.8609 61.7984 97.8609 61.9215 97.8609C61.9192 97.6785 61.6775 97.7401 61.6775 97.7994Z" fill="#F9F6F2"/>
<path d="M123.395 139.96C122.483 140.142 121.512 140.445 120.358 140.445C118.961 140.507 117.686 140.263 116.289 140.081C115.862 139.169 115.924 138.197 115.924 137.044C115.862 133.642 115.862 130.422 115.862 126.777C115.862 125.137 115.801 122.707 115.801 120.824V116.633C115.133 118.272 114.889 120.035 114.221 121.674C113.794 123.619 113.067 125.379 112.399 127.262L112.034 128.719C111.731 129.631 111.487 130.603 111.243 131.635C110.94 132.607 110.575 133.763 110.272 134.976C109.845 135.158 109.36 135.158 108.874 135.22C107.356 135.402 106.02 135.464 104.38 135.281C104.319 135.037 104.38 135.037 104.563 134.855C104.501 134.793 104.319 134.855 104.319 134.672C103.53 131.271 102.315 128.719 101.523 125.621C101.341 124.832 101.038 123.981 100.794 123.252C100.732 123.069 100.611 122.766 100.55 122.34C99.8818 120.395 99.2137 118.391 98.4249 116.266C98.2425 116.996 98.304 117.784 98.304 118.452C98.304 119.364 98.1216 120.092 98.1216 121.004C98.1216 123.373 98.2425 125.742 98.4249 128.355C98.6073 132.242 98.8512 136.435 98.4249 140.078C98.1809 140.261 98.1809 140.017 97.9392 139.957C96.9064 140.019 95.6911 140.505 94.4166 140.322C93.2629 140.14 92.0477 139.898 91.1357 139.898C91.0741 138.865 91.1973 137.894 91.1973 136.74C91.1973 135.708 91.1357 134.615 91.0764 133.642C91.0764 132.853 91.138 132.062 91.138 131.273C91.138 129.328 90.9556 127.386 90.9556 125.441C90.9556 124.043 90.8347 122.769 91.0171 121.371C90.8347 117.666 91.0171 114.082 90.8347 110.194C90.8347 109.709 90.8963 109.1 90.8963 108.432C90.9579 107.885 90.8963 107.278 90.8963 106.852C90.8963 106.731 90.9579 106.608 91.0171 106.549C90.7732 106.245 90.8347 105.454 90.8347 104.969C90.8347 103.815 90.6523 102.6 90.6523 101.323C90.6523 100.108 90.6523 98.7715 90.7139 97.5563C90.9579 97.3739 91.138 97.4947 91.4435 97.4947C92.3555 97.4947 93.3268 97.3123 94.3596 97.1299C95.0277 97.0684 95.7573 97.1299 96.4869 97.1299C97.5197 97.0684 98.4294 97.3739 99.4623 97.5563C99.8886 97.5563 100.192 97.4947 100.616 97.6771C100.798 98.2243 101.102 98.9517 101.042 99.4989C101.286 99.6813 101.286 99.9845 101.346 100.288C101.528 100.773 101.71 101.138 101.649 101.565C102.075 102.233 102.196 103.083 102.438 103.872C103.227 106.788 103.895 109.704 104.807 112.62C105.598 115.475 106.569 118.329 107.114 121.307C107.296 120.821 107.54 120.213 107.723 119.545C108.149 118.147 108.573 116.872 108.817 115.354C108.817 115.172 109 115.292 108.938 115.11C108.876 115.172 108.876 115.11 108.876 115.048L110.333 110.067C111.001 108.304 111.245 106.482 111.731 104.72C112.399 102.351 113.311 100.224 113.614 97.6133C114.041 97.6133 114.161 97.3693 114.586 97.3101H114.768C114.95 97.3101 114.95 97.2485 115.012 97.2485C115.438 97.1869 115.862 97.1869 116.289 97.1869C116.592 97.1869 116.957 97.0661 117.26 97.0661C118.352 97.0045 119.446 97.0661 120.479 97.2485C121.451 97.31 122.422 97.4309 123.334 97.7341C123.395 99.0109 123.09 100.406 123.151 101.804C123.151 102.23 123.334 102.593 123.151 103.019C123.455 104.417 123.272 105.874 123.213 107.333C123.213 107.636 123.275 108.001 123.275 108.304C123.213 108.366 123.213 108.607 123.213 109.155C123.395 112.253 123.092 114.925 123.275 117.538C123.457 120.94 123.092 123.977 123.275 126.955C123.275 127.44 123.336 127.926 123.336 128.412C123.336 129.08 123.092 129.688 123.275 130.112C123.336 130.295 123.457 130.233 123.457 130.416C123.457 130.66 123.275 130.901 123.275 131.145C123.275 132.057 123.457 132.846 123.457 133.758C123.395 135.769 123.578 137.956 123.395 139.96ZM100.737 99.5034C100.675 99.5034 100.675 99.6858 100.737 99.6858C100.737 99.5034 101.222 99.8066 101.04 99.565C100.978 99.6265 100.978 99.6265 100.978 99.565L100.917 99.5034H100.737ZM101.102 100.719C101.102 100.78 100.981 100.719 101.04 100.901C101.161 100.901 101.222 100.901 101.284 100.839C101.222 100.78 101.161 100.719 101.102 100.719Z" fill="#F9F6F2"/>
<path d="M153.408 105.823C153.652 107.95 153.652 109.772 153.469 112.203C153.287 113.721 153.166 115.18 152.74 116.455C152.496 117.123 152.314 117.732 152.072 118.217C151.645 118.947 151.101 119.371 150.433 119.918L148.611 121.316C147.213 122.045 145.756 122.593 143.873 122.834C142.111 123.078 140.227 122.955 138.467 123.017C138.223 125.75 138.223 128.605 138.223 131.035C138.223 132.312 138.285 133.283 138.223 134.681C138.162 136.382 138.285 137.962 138.223 139.663C136.825 139.966 135.61 140.452 134.153 140.269C133 140.208 132.332 139.966 131.176 139.905C130.932 138.628 130.872 137.109 130.932 135.408C130.993 133.769 130.993 132.127 130.932 130.488C130.932 129.091 131.053 127.816 130.87 126.418C130.688 124.9 130.87 123.381 130.87 121.863C130.932 120.465 130.87 119.25 130.87 117.855C130.87 116.578 131.053 115.365 131.053 114.15C131.053 113.178 131.053 112.328 130.991 111.416C130.991 110.992 131.053 110.748 131.053 110.322C131.053 110.018 130.991 109.654 130.991 109.35C130.929 108.197 131.112 106.981 131.053 105.828C130.991 105.16 130.932 104.733 130.991 104.065C130.991 103.518 131.053 102.971 130.991 102.303C130.991 101.635 130.809 101.208 130.809 100.663C130.809 99.7515 130.87 98.5978 130.809 97.6265C130.991 97.4441 131.112 97.5057 131.294 97.3233C132.569 97.1409 134.452 97.4441 135.97 97.5057C137.124 97.5057 138.157 97.3233 139.311 97.5057C139.979 97.3233 140.829 97.5057 141.618 97.5057C142.286 97.5672 142.833 97.4441 143.38 97.6265C143.563 97.6265 143.684 97.7474 143.866 97.7474C144.413 97.8089 144.961 97.7474 145.446 97.9298C146.6 98.233 147.633 98.5362 148.786 99.0242C149.454 99.2681 149.637 99.389 150.184 99.8746C150.67 100.36 150.973 100.907 151.399 101.393C151.643 101.696 151.826 101.879 152.006 102.182C152.309 102.608 152.553 103.215 152.797 103.883C152.984 104.425 153.226 105.094 153.408 105.823ZM144.904 105.337C143.203 104.425 140.592 104.669 138.344 104.852C138.526 108.498 137.92 111.594 138.406 115.24C140.774 115.666 143.266 115.604 145.027 114.692L145.574 113.903C145.635 113.842 145.635 113.659 145.635 113.297C145.697 113.115 145.818 113.115 145.818 112.932C146 112.506 145.939 111.961 145.939 111.475C146.121 110.746 146.121 110.078 146.183 109.41C146.24 108.01 145.633 106.553 144.904 105.337Z" fill="#F9F6F2"/>
<path d="M182.381 139.17C182.443 139.474 182.685 139.595 182.502 139.9C179.889 140.082 177.947 140.265 175.272 140.082C175.211 140.021 175.152 139.9 174.969 139.839C174.908 138.685 174.604 138.017 174.36 137.043C173.934 135.16 173.448 133.703 173.207 131.758C170.229 131.576 168.043 131.941 164.944 131.941C164.276 134.613 163.911 137.47 163.001 140.08C160.876 140.263 157.958 140.445 155.833 140.142C155.589 139.959 155.712 139.656 155.772 139.353C156.075 137.955 156.319 136.195 156.56 134.553C156.743 133.885 156.864 133.217 156.925 132.609C157.228 131.152 157.411 129.754 157.714 128.295L158.323 126.047C158.323 125.379 158.505 125.014 158.688 124.528C158.87 123.313 158.991 121.612 159.235 120.155L159.721 118.272L159.903 117.239C160.085 116.815 160.389 116.45 160.206 116.024C160.268 115.842 160.389 115.903 160.45 115.721C160.633 114.202 161.118 112.075 161.421 110.071C161.483 109.524 161.665 108.976 161.845 108.491C161.845 107.823 161.969 107.458 162.149 106.911C162.331 106.608 162.393 106.243 162.452 105.816C162.634 104.784 162.755 103.63 162.938 102.476L163.12 101.626C163.302 100.958 163.364 99.9248 163.606 99.136C163.788 98.4679 163.85 97.7383 164.274 97.1911C167.128 96.6439 170.165 96.8263 173.264 97.1296C173.446 97.1296 173.385 97.3735 173.567 97.312C173.811 99.3161 174.297 101.199 174.721 103.083L175.024 105.027L175.51 106.79C175.995 108.673 176.298 110.495 176.725 112.44C177.393 116.085 178.305 119.364 179.032 123.252C179.276 124.405 179.458 125.5 179.641 126.653C179.823 127.565 180.247 128.475 180.491 129.449C180.918 131.393 181.221 133.398 181.707 135.34L182.01 136.859L182.254 138.315L182.381 139.17ZM171.629 124.166C171.143 121.797 170.717 119.246 170.049 116.573C169.746 115.176 168.895 113.416 168.895 112.018C168.166 116.149 167.194 120.158 166.223 124.289C168.106 124.469 169.99 124.227 171.629 124.166Z" fill="#F9F6F2"/>
<path d="M188.457 108.434C188.457 104.547 188.519 101.083 188.457 97.8638C188.701 97.8638 188.701 97.6814 188.76 97.499C190.217 97.3166 191.797 97.2551 193.681 97.2551C194.469 97.2551 195.261 97.1935 195.808 97.499C196.052 100.171 195.929 102.905 195.929 105.821C195.99 107.948 195.99 110.135 195.99 112.504C195.99 113.293 195.808 114.205 195.99 114.873C196.052 115.055 196.173 114.993 196.173 115.176C196.234 115.479 196.173 115.844 196.173 116.147V116.936C196.173 117.604 196.234 118.211 196.234 118.758C196.173 119.002 196.113 119.182 196.113 119.426C196.052 120.094 196.113 121.006 196.113 121.43C196.113 124.043 195.81 126.897 195.992 129.752L196.236 132.303C196.357 134.916 196.357 137.467 196.236 140.019C195.689 140.443 195.021 140.322 194.294 140.384C193.079 140.566 191.863 140.628 190.466 140.445C189.798 140.384 189.13 140.507 188.706 140.08C188.462 136.193 188.582 132.67 188.644 129.269C188.706 126.111 188.523 122.344 188.462 118.698C188.457 115.055 188.516 111.35 188.457 108.434Z" fill="#F9F6F2"/>
<path d="M198.692 171.357H29.3149C26.4467 171.357 24.1211 169.031 24.1211 166.163V152.198C24.1211 149.329 26.4467 147.004 29.3149 147.004H198.689C201.558 147.004 203.883 149.329 203.883 152.198V166.163C203.883 169.031 201.56 171.357 198.692 171.357Z" fill="#27C5CD"/>
<path d="M66.9368 152.107C66.9368 152.433 66.8114 152.67 66.5584 152.811C66.4102 152.891 66.1571 152.932 65.8014 152.932H63.494V162.337C63.494 162.579 63.4872 162.75 63.4735 162.852C63.4598 162.955 63.4211 163.064 63.3572 163.178C63.2022 163.459 62.9377 163.6 62.5661 163.6C62.1922 163.6 61.93 163.459 61.7749 163.178C61.7111 163.064 61.6723 162.955 61.6586 162.852C61.6449 162.75 61.6381 162.576 61.6381 162.337V152.934H59.3308C58.9751 152.934 58.722 152.893 58.5738 152.813C58.3207 152.67 58.1953 152.435 58.1953 152.109C58.1953 151.783 58.3207 151.546 58.5738 151.402C58.722 151.322 58.9751 151.281 59.3308 151.281H65.8014C66.1571 151.281 66.4102 151.322 66.5584 151.402C66.8092 151.546 66.9368 151.781 66.9368 152.107Z" fill="#F9F6F2"/>
<path d="M72.8231 160.124V155.933C72.8231 155.584 72.8665 155.322 72.9531 155.151C73.0967 154.875 73.3453 154.738 73.7009 154.738C74.0566 154.738 74.3051 154.875 74.4488 155.151C74.5354 155.324 74.5787 155.584 74.5787 155.933V162.397C74.5787 162.782 74.5263 163.06 74.4237 163.231C74.2687 163.478 74.027 163.601 73.7009 163.601C73.3863 163.601 73.1469 163.487 72.9873 163.256C72.8961 163.124 72.8437 162.933 72.8323 162.68C72.2303 163.316 71.4643 163.635 70.534 163.635C69.6448 163.635 68.9266 163.37 68.3817 162.844C67.7957 162.276 67.5039 161.455 67.5039 160.384V155.935C67.5039 155.586 67.5472 155.324 67.6339 155.153C67.7775 154.877 68.026 154.741 68.3817 154.741C68.7374 154.741 68.9859 154.877 69.1295 155.153C69.2162 155.327 69.2595 155.586 69.2595 155.935V160.126C69.2595 160.773 69.4214 161.257 69.7451 161.576C70.0689 161.895 70.493 162.053 71.0151 162.053C71.5418 162.053 71.975 161.891 72.3147 161.567C72.6544 161.241 72.8231 160.76 72.8231 160.124Z" fill="#F9F6F2"/>
<path d="M80.8203 160.969C80.8203 160.212 81.0825 159.601 81.6069 159.135C82.1313 158.67 82.8769 158.438 83.839 158.438H86.1532V157.895C86.1532 157.316 86.0073 156.887 85.7178 156.609C85.4282 156.331 84.9654 156.192 84.327 156.192C83.725 156.192 83.1687 156.388 82.658 156.778C82.4574 156.933 82.2453 157.01 82.0219 157.01C81.8098 157.01 81.6411 156.933 81.5134 156.778C81.3766 156.623 81.306 156.443 81.306 156.235C81.306 155.88 81.5773 155.544 82.1222 155.228C82.731 154.879 83.4697 154.703 84.3429 154.703C85.5126 154.703 86.4018 154.956 87.006 155.465C87.6102 155.973 87.9134 156.719 87.9134 157.706V162.405C87.9134 162.779 87.8701 163.041 87.7834 163.196C87.6398 163.465 87.3913 163.6 87.0356 163.6C86.7666 163.6 86.5545 163.518 86.3995 163.351C86.2786 163.214 86.2125 163.005 86.2011 162.722C85.8568 163.059 85.5148 163.296 85.1728 163.429C84.8308 163.561 84.3931 163.627 83.8596 163.627C82.8039 163.627 82.0219 163.363 81.5112 162.836C81.0506 162.359 80.8203 161.737 80.8203 160.969ZM82.5326 160.941C82.5326 161.762 83.0798 162.172 84.1765 162.172C84.5322 162.172 84.8354 162.14 85.0839 162.074C85.3347 162.008 85.5627 161.876 85.7679 161.673C86.0256 161.431 86.1555 160.998 86.1555 160.373V159.685H84.0898C83.5791 159.685 83.1915 159.792 82.9293 160.009C82.6626 160.223 82.5326 160.535 82.5326 160.941Z" fill="#F9F6F2"/>
<path d="M95.8505 160.124V155.933C95.8505 155.584 95.8938 155.322 95.9804 155.151C96.1241 154.875 96.3726 154.738 96.7283 154.738C97.084 154.738 97.3325 154.875 97.4761 155.151C97.5628 155.324 97.6061 155.584 97.6061 155.933V162.397C97.6061 162.782 97.5537 163.06 97.4511 163.231C97.296 163.478 97.0543 163.601 96.7283 163.601C96.4136 163.601 96.1742 163.487 96.0146 163.256C95.9234 163.124 95.871 162.933 95.8596 162.68C95.2577 163.316 94.4916 163.635 93.5614 163.635C92.6722 163.635 91.954 163.37 91.4091 162.844C90.8231 162.276 90.5312 161.455 90.5312 160.384V155.935C90.5312 155.586 90.5746 155.324 90.6612 155.153C90.8049 154.877 91.0534 154.741 91.4091 154.741C91.7647 154.741 92.0133 154.877 92.1569 155.153C92.2435 155.327 92.2869 155.586 92.2869 155.935V160.126C92.2869 160.773 92.4487 161.257 92.7725 161.576C93.0962 161.895 93.5203 162.053 94.0424 162.053C94.5691 162.053 95.0023 161.891 95.3421 161.567C95.6818 161.241 95.8505 160.76 95.8505 160.124Z" fill="#F9F6F2"/>
<path d="M100.352 161.116V152.39C100.352 152.041 100.395 151.779 100.482 151.608C100.625 151.332 100.874 151.195 101.229 151.195C101.585 151.195 101.834 151.332 101.977 151.608C102.064 151.779 102.107 152.041 102.107 152.39V161.038C102.107 161.692 102.404 162.028 102.994 162.046C103.293 162.057 103.505 162.098 103.63 162.167C103.865 162.292 103.984 162.5 103.984 162.787C103.984 163.067 103.865 163.272 103.63 163.398C103.464 163.489 103.218 163.535 102.889 163.535H102.716C102.187 163.535 101.742 163.421 101.378 163.19C101.013 162.96 100.751 162.671 100.591 162.317C100.431 161.964 100.352 161.562 100.352 161.116Z" fill="#F9F6F2"/>
<path d="M104.992 160.969C104.992 160.212 105.254 159.601 105.779 159.135C106.303 158.67 107.049 158.438 108.011 158.438H110.325V157.895C110.325 157.316 110.179 156.887 109.89 156.609C109.6 156.331 109.137 156.192 108.499 156.192C107.897 156.192 107.341 156.388 106.83 156.778C106.629 156.933 106.417 157.01 106.194 157.01C105.982 157.01 105.813 156.933 105.685 156.778C105.549 156.623 105.478 156.443 105.478 156.235C105.478 155.88 105.749 155.544 106.294 155.228C106.903 154.879 107.642 154.703 108.515 154.703C109.684 154.703 110.574 154.956 111.178 155.465C111.782 155.973 112.085 156.719 112.085 157.706V162.405C112.085 162.779 112.042 163.041 111.955 163.196C111.812 163.465 111.563 163.6 111.207 163.6C110.938 163.6 110.726 163.518 110.571 163.351C110.451 163.214 110.384 163.005 110.373 162.722C110.029 163.059 109.687 163.296 109.345 163.429C109.003 163.561 108.565 163.627 108.031 163.627C106.976 163.627 106.194 163.363 105.683 162.836C105.222 162.359 104.992 161.737 104.992 160.969ZM106.704 160.941C106.704 161.762 107.252 162.172 108.348 162.172C108.704 162.172 109.007 162.14 109.256 162.074C109.507 162.008 109.735 161.876 109.94 161.673C110.197 161.431 110.327 160.998 110.327 160.373V159.685H108.262C107.751 159.685 107.363 159.792 107.101 160.009C106.834 160.223 106.704 160.535 106.704 160.941Z" fill="#F9F6F2"/>
<path d="M121.733 163.636C120.481 163.636 119.469 163.372 118.696 162.845C118.374 162.626 118.215 162.382 118.215 162.113C118.215 161.867 118.308 161.666 118.5 161.511C118.637 161.39 118.799 161.331 118.981 161.331C119.159 161.331 119.378 161.413 119.635 161.58C120.237 161.969 120.939 162.166 121.744 162.166C122.33 162.166 122.795 162.061 123.142 161.851C123.488 161.641 123.662 161.336 123.662 160.934C123.662 160.321 123.27 159.977 122.483 159.902L121.081 159.772C119.359 159.617 118.5 158.819 118.5 157.38C118.5 156.548 118.812 155.893 119.437 155.417C120.062 154.94 120.848 154.703 121.794 154.703C122.672 154.703 123.454 154.863 124.143 155.184C124.407 155.31 124.597 155.433 124.711 155.554C124.82 155.686 124.875 155.845 124.875 156.035C124.875 156.224 124.804 156.397 124.66 156.55C124.512 156.698 124.339 156.773 124.145 156.773C124.02 156.773 123.83 156.714 123.577 156.593C122.953 156.29 122.346 156.137 121.763 156.137C121.259 156.137 120.871 156.242 120.602 156.452C120.333 156.662 120.198 156.938 120.198 157.282C120.198 157.596 120.296 157.834 120.495 157.991C120.693 158.148 120.994 158.244 121.402 158.278L122.779 158.408C124.505 158.575 125.369 159.395 125.369 160.868C125.369 161.753 125.034 162.432 124.362 162.911C123.687 163.397 122.811 163.636 121.733 163.636Z" fill="#F9F6F2"/>
<path d="M127.07 159.17C127.07 157.754 127.403 156.655 128.069 155.873C128.735 155.093 129.635 154.703 130.771 154.703C131.89 154.703 132.777 155.07 133.434 155.804C134.09 156.539 134.432 157.494 134.462 158.67C134.473 159.019 134.394 159.281 134.22 159.452C134.072 159.601 133.812 159.676 133.445 159.676H128.808C128.808 160.433 129.001 161.032 129.389 161.475C129.777 161.917 130.328 162.138 131.047 162.138C131.706 162.138 132.266 161.954 132.725 161.586C132.989 161.374 133.226 161.267 133.438 161.267C133.621 161.267 133.787 161.342 133.938 161.495C134.086 161.648 134.161 161.821 134.161 162.015C134.161 162.348 133.869 162.701 133.283 163.073C132.716 163.447 131.954 163.632 131.003 163.632C130.436 163.632 129.923 163.552 129.462 163.394C129.004 163.237 128.591 162.989 128.222 162.651C127.855 162.314 127.57 161.849 127.369 161.258C127.171 160.67 127.07 159.972 127.07 159.17ZM132.734 158.456C132.7 157.945 132.62 157.549 132.492 157.268C132.342 156.931 132.118 156.662 131.822 156.463C131.523 156.265 131.174 156.167 130.773 156.167C130.365 156.167 130.012 156.265 129.711 156.463C129.41 156.662 129.184 156.928 129.036 157.268C128.903 157.56 128.828 157.957 128.812 158.456H132.734Z" fill="#F9F6F2"/>
<path d="M139.685 167.156C138.86 167.156 138.171 167.004 137.62 166.7C137.022 166.368 136.726 166.023 136.726 165.668C136.726 165.449 136.801 165.266 136.949 165.12C137.097 164.975 137.262 164.902 137.439 164.902C137.617 164.902 137.882 165.013 138.231 165.237C138.673 165.524 139.14 165.668 139.633 165.668C140.333 165.668 140.848 165.458 141.181 165.038C141.514 164.619 141.68 164.09 141.68 163.447V162.327C141.377 162.69 141.042 162.945 140.677 163.098C140.312 163.251 139.895 163.326 139.425 163.326C138.552 163.326 137.859 163.068 137.344 162.551C136.954 162.161 136.692 161.682 136.562 161.119C136.429 160.554 136.363 159.849 136.363 159.005C136.363 158.162 136.429 157.457 136.562 156.892C136.694 156.326 136.954 155.85 137.344 155.46C137.848 154.956 138.548 154.703 139.444 154.703C139.92 154.703 140.335 154.776 140.691 154.922C141.046 155.068 141.379 155.323 141.689 155.684C141.701 155.414 141.753 155.214 141.844 155.082C142.004 154.851 142.243 154.737 142.558 154.737C142.884 154.737 143.126 154.86 143.281 155.107C143.383 155.278 143.436 155.558 143.436 155.941V163.479C143.436 164.557 143.096 165.44 142.417 166.126C141.74 166.812 140.828 167.156 139.685 167.156ZM141.683 159.005C141.683 158.748 141.676 158.52 141.662 158.321C141.648 158.123 141.619 157.913 141.575 157.69C141.532 157.466 141.468 157.275 141.386 157.118C141.304 156.96 141.199 156.814 141.071 156.68C140.946 156.545 140.784 156.443 140.59 156.374C140.394 156.306 140.169 156.272 139.911 156.272C139.608 156.272 139.343 156.324 139.12 156.431C138.896 156.539 138.721 156.673 138.595 156.835C138.47 156.999 138.37 157.207 138.299 157.46C138.228 157.713 138.18 157.957 138.158 158.192C138.135 158.426 138.123 158.7 138.123 159.01C138.123 159.32 138.135 159.591 138.158 159.829C138.18 160.063 138.228 160.307 138.299 160.56C138.37 160.814 138.47 161.021 138.595 161.185C138.721 161.349 138.896 161.484 139.12 161.589C139.343 161.696 139.608 161.748 139.911 161.748C140.214 161.748 140.479 161.696 140.702 161.589C140.926 161.482 141.099 161.349 141.222 161.187C141.345 161.028 141.443 160.818 141.514 160.563C141.584 160.307 141.63 160.063 141.651 159.831C141.673 159.596 141.683 159.322 141.683 159.005Z" fill="#F9F6F2"/>
<path d="M151.46 160.124V155.933C151.46 155.584 151.503 155.322 151.59 155.151C151.733 154.875 151.982 154.738 152.338 154.738C152.693 154.738 152.942 154.875 153.086 155.151C153.172 155.324 153.215 155.584 153.215 155.933V162.397C153.215 162.782 153.163 163.06 153.06 163.231C152.905 163.478 152.664 163.601 152.338 163.601C152.023 163.601 151.784 163.487 151.624 163.256C151.533 163.124 151.48 162.933 151.469 162.68C150.867 163.316 150.101 163.635 149.171 163.635C148.282 163.635 147.563 163.37 147.018 162.844C146.432 162.276 146.141 161.455 146.141 160.384V155.935C146.141 155.586 146.184 155.324 146.271 155.153C146.414 154.877 146.663 154.741 147.018 154.741C147.374 154.741 147.623 154.877 147.766 155.153C147.853 155.327 147.896 155.586 147.896 155.935V160.126C147.896 160.773 148.058 161.257 148.382 161.576C148.706 161.895 149.13 162.053 149.652 162.053C150.179 162.053 150.612 161.891 150.951 161.567C151.291 161.241 151.46 160.76 151.46 160.124Z" fill="#F9F6F2"/>
<path d="M157.75 155.72C158.003 155.41 158.325 155.164 158.715 154.979C159.105 154.797 159.524 154.703 159.971 154.703C160.591 154.703 161.102 154.838 161.503 155.107C161.852 155.337 162.028 155.599 162.028 155.898C162.028 156.151 161.941 156.363 161.77 156.534C161.61 156.694 161.41 156.776 161.168 156.776C160.983 156.776 160.758 156.698 160.489 156.543C160.179 156.37 159.864 156.285 159.542 156.285C159.032 156.285 158.608 156.463 158.268 156.819C157.931 157.175 157.76 157.649 157.76 158.239V162.405C157.76 162.756 157.716 163.016 157.63 163.187C157.486 163.463 157.237 163.6 156.882 163.6C156.526 163.6 156.278 163.463 156.134 163.187C156.047 163.014 156.004 162.754 156.004 162.405V155.941C156.004 155.556 156.056 155.278 156.159 155.107C156.314 154.86 156.556 154.737 156.882 154.737C157.196 154.737 157.436 154.851 157.595 155.082C157.687 155.216 157.739 155.428 157.75 155.72Z" fill="#F9F6F2"/>
<path d="M162.719 160.969C162.719 160.212 162.981 159.601 163.505 159.135C164.03 158.67 164.775 158.438 165.737 158.438H168.052V157.895C168.052 157.316 167.906 156.887 167.616 156.609C167.327 156.331 166.864 156.192 166.225 156.192C165.623 156.192 165.067 156.388 164.556 156.778C164.356 156.933 164.144 157.01 163.92 157.01C163.708 157.01 163.54 156.933 163.412 156.778C163.275 156.623 163.204 156.443 163.204 156.235C163.204 155.88 163.476 155.544 164.021 155.228C164.629 154.879 165.368 154.703 166.241 154.703C167.411 154.703 168.3 154.956 168.904 155.465C169.509 155.973 169.812 156.719 169.812 157.706V162.405C169.812 162.779 169.769 163.041 169.682 163.196C169.538 163.465 169.29 163.6 168.934 163.6C168.665 163.6 168.453 163.518 168.298 163.351C168.177 163.214 168.111 163.005 168.1 162.722C167.755 163.059 167.413 163.296 167.071 163.429C166.729 163.561 166.292 163.627 165.758 163.627C164.702 163.627 163.92 163.363 163.41 162.836C162.951 162.359 162.719 161.737 162.719 160.969ZM164.431 160.941C164.431 161.762 164.978 162.172 166.075 162.172C166.431 162.172 166.734 162.14 166.982 162.074C167.233 162.008 167.461 161.876 167.666 161.673C167.924 161.431 168.054 160.998 168.054 160.373V159.685H165.988C165.478 159.685 165.09 159.792 164.828 160.009C164.563 160.223 164.431 160.535 164.431 160.941Z" fill="#F9F6F2"/>
</g>
<defs>
<clipPath id="clip0_4071_42110">
<rect width="228" height="228" fill="white"/>
</clipPath>
</defs>
<!-- Code injected by live-server -->
<script>
	// <![CDATA[  <-- For SVG support
	if ('WebSocket' in window) {
		(function () {
			function refreshCSS() {
				var sheets = [].slice.call(document.getElementsByTagName("link"));
				var head = document.getElementsByTagName("head")[0];
				for (var i = 0; i < sheets.length; ++i) {
					var elem = sheets[i];
					var parent = elem.parentElement || head;
					parent.removeChild(elem);
					var rel = elem.rel;
					if (elem.href && typeof rel != "string" || rel.length == 0 || rel.toLowerCase() == "stylesheet") {
						var url = elem.href.replace(/(&|\?)_cacheOverride=\d+/, '');
						elem.href = url + (url.indexOf('?') >= 0 ? '&' : '?') + '_cacheOverride=' + (new Date().valueOf());
					}
					parent.appendChild(elem);
				}
			}
			var protocol = window.location.protocol === 'http:' ? 'ws://' : 'wss://';
			var address = protocol + window.location.host + window.location.pathname + '/ws';
			var socket = new WebSocket(address);
			socket.onmessage = function (msg) {
				if (msg.data == 'reload') window.location.reload();
				else if (msg.data == 'refreshcss') refreshCSS();
			};
			if (sessionStorage && !sessionStorage.getItem('IsThisFirstTime_Log_From_LiveServer')) {
				console.log('Live reload enabled.');
				sessionStorage.setItem('IsThisFirstTime_Log_From_LiveServer', true);
			}
		})();
	}
	else {
		console.error('Upgrade your browser. This Browser is NOT supported WebSocket for Live-Reloading.');
	}
	// ]]>
</script>
</svg>
